<?xml version="1.0" encoding="utf-8"?>
<!-- Generator: Adobe Illustrator 21.0.2, SVG Export Plug-In . SVG Version: 6.00 Build 0)  -->
<svg version="1.1" id="Layer_1" xmlns="http://www.w3.org/2000/svg" xmlns:xlink="http://www.w3.org/1999/xlink" x="0px" y="0px"
	 viewBox="0 0 448 512" style="enable-background:new 0 0 448 512;" xml:space="preserve">
<path d="M192,188v216c0,6.6-5.4,12-12,12h-24c-6.6,0-12-5.4-12-12V188c0-6.6,5.4-12,12-12h24C186.6,176,192,181.4,192,188z M292,176
	h-24c-6.6,0-12,5.4-12,12v216c0,6.6,5.4,12,12,12h24c6.6,0,12-5.4,12-12V188C304,181.4,298.6,176,292,176z M424,80
	c13.3,0,24,10.7,24,24v12c0,6.6-5.4,12-12,12h-20v336c0,26.5-21.5,48-48,48H80c-26.5,0-48-21.5-48-48V128H12c-6.6,0-12-5.4-12-12
	v-12c0-13.3,10.7-24,24-24h74.4l34-56.7C141.1,8.8,156.7,0,173.6,0h100.8c16.9,0,32.5,8.8,41.2,23.3l34,56.7H424z M154.4,80h139.2
	l-17.5-29.1c-1.1-1.8-3-2.9-5.1-2.9h-94c-2.1,0-4.1,1.1-5.1,2.9L154.4,80z M368,128H80v330c0,3.3,2.7,6,6,6h276c3.3,0,6-2.7,6-6V128
	z"/>
</svg>
