<?xml version="1.0" encoding="utf-8"?>
<!-- Generator: Adobe Illustrator 21.0.2, SVG Export Plug-In . SVG Version: 6.00 Build 0)  -->
<svg version="1.1" id="Capa_1" xmlns="http://www.w3.org/2000/svg" xmlns:xlink="http://www.w3.org/1999/xlink" x="0px" y="0px"
	 viewBox="0 0 512 512" style="enable-background:new 0 0 512 512;" xml:space="preserve">
<style type="text/css">
	.st0{fill:#FFFFFF;}
</style>
<g>
	<g id="Layer_1_144_">
		<g>
			<path class="st0" d="M343.8,10.2L343.8,10.2c-29.5,0-54.4,22.7-56.6,52.1l-14.7,211.8c-1.1,9.1,2.3,18.1,9.1,24.9
				c6.8,6.8,14.7,11.3,24.9,11.3h1.1l-5.7,166.5c0,6.8,2.3,13.6,7.9,19.3c4.5,5.7,11.3,7.9,19.3,7.9h19.3
				c14.7,0,26.1-12.5,26.1-26.1V310.4V159.7V40.8C374.4,23.8,360.8,10.2,343.8,10.2z"/>
			<path class="st0" d="M205.6,197.1h5.7c17,0,31.7-13.6,31.7-30.6V27.2c0-5.7-4.5-10.2-10.2-10.2h-2.3c-5.7,0-9.1,4.5-9.1,10.2
				v91.8c0,7.9-6.8,14.7-14.7,14.7h-2.3c-7.9,0-14.7-6.8-14.7-14.7V27.2c0-5.7-4.5-10.2-9.1-10.2h-2.3c-5.7,0-10.2,4.5-10.2,10.2
				v91.8c0,7.9-6.8,14.7-14.7,14.7h-2.3c-7.9,0-14.7-6.8-14.7-14.7V27.2c0-5.7-4.5-10.2-9.1-10.2h-2.3c-5.7,0-9.1,4.5-9.1,10.2
				v139.3c0,17,13.6,30.6,30.6,30.6h4.5l-9.1,279.8c0,6.8,2.3,13.6,6.8,19.3c4.5,4.5,11.3,7.9,18.1,7.9h20.4
				c6.8,0,13.6-3.4,18.1-7.9c4.5-4.5,7.9-12.5,6.8-19.3L205.6,197.1z"/>
		</g>
	</g>
</g>
</svg>
