<?xml version="1.0" encoding="utf-8"?>
<!-- Generator: Adobe Illustrator 21.0.2, SVG Export Plug-In . SVG Version: 6.00 Build 0)  -->
<svg version="1.1" id="Layer_1" xmlns="http://www.w3.org/2000/svg" xmlns:xlink="http://www.w3.org/1999/xlink" x="0px" y="0px"
	 viewBox="0 0 609 302" style="enable-background:new 0 0 609 302;" xml:space="preserve">
<style type="text/css">
	.st0{fill:#1D1D1B;}
</style>
<g>
	<g>
		<g>
			<path d="M314.1,272.8h-5.2l-0.7,5.3h5.1l-0.5,4.7h-5.2l-0.7,5.9H302l0.7-5.9h-5.2l-0.7,5.9h-4.9l0.7-5.9h-5.1l0.5-4.7h5.2
				l0.7-5.3h-5.1l0.5-4.8h5.2l0.8-6.2h4.9l-0.8,6.2h5.2l0.8-6.2h4.9l-0.8,6.2h5.1L314.1,272.8z M303.3,278l0.7-5.3h-5.2l-0.7,5.3
				H303.3z"/>
			<path d="M327,273.3c-1.2,0-2.2,0.5-3,1.4c-0.8,0.9-1.1,2.1-1.1,3.6c0,1.5,0.4,2.7,1.1,3.6c0.8,0.9,1.8,1.4,3,1.4
				c1.9,0,3.2-0.8,4.1-2.3l5,2.9c-0.8,1.6-2,2.8-3.7,3.7c-1.6,0.9-3.5,1.3-5.7,1.3c-2.1,0-4-0.4-5.6-1.3c-1.6-0.9-2.8-2.1-3.7-3.7
				c-0.9-1.6-1.3-3.4-1.3-5.5c0-2.1,0.4-4,1.3-5.6c0.9-1.6,2.1-2.9,3.8-3.7c1.6-0.9,3.5-1.3,5.6-1.3c2.1,0,3.9,0.4,5.5,1.3
				c1.6,0.9,2.9,2.1,3.7,3.6l-4.9,2.9C330.1,274,328.8,273.3,327,273.3z"/>
			<path d="M354.2,269c1.7,0.9,3,2.1,4,3.7c0.9,1.6,1.4,3.4,1.4,5.5c0,2.1-0.5,4-1.4,5.6c-0.9,1.6-2.3,2.8-4,3.7
				c-1.7,0.9-3.7,1.3-5.9,1.3s-4.2-0.4-5.9-1.3s-3-2.1-4-3.7c-0.9-1.6-1.4-3.4-1.4-5.6c0-2.1,0.5-3.9,1.4-5.5c0.9-1.6,2.3-2.8,4-3.7
				c1.7-0.9,3.7-1.3,5.9-1.3S352.5,268.1,354.2,269z M345,274.6c-0.8,0.9-1.2,2.2-1.2,3.7c0,1.6,0.4,2.8,1.2,3.7
				c0.8,0.9,1.9,1.4,3.2,1.4c1.4,0,2.4-0.5,3.3-1.4c0.8-0.9,1.2-2.2,1.2-3.7c0-1.5-0.4-2.8-1.2-3.7c-0.8-0.9-1.9-1.4-3.2-1.4
				S345.9,273.7,345,274.6z"/>
			<path d="M396.1,269.8c1.4,1.4,2,3.4,2,5.8v13h-6.8v-11.1c0-1.2-0.3-2.1-0.9-2.8c-0.6-0.7-1.4-1-2.5-1c-1.2,0-2.1,0.5-2.9,1.3
				c-0.7,0.9-1.1,2-1.1,3.3v10.2h-6.8v-11.1c0-1.2-0.3-2.1-0.9-2.8c-0.6-0.7-1.4-1-2.5-1c-1.2,0-2.2,0.5-2.9,1.3
				c-0.7,0.9-1.1,2-1.1,3.3v10.2h-6.8v-20.7h6.8v3.4c0.7-1.2,1.6-2.1,2.8-2.7s2.5-0.9,4-0.9c1.7,0,3.1,0.4,4.3,1.2
				c1.2,0.8,2.1,2,2.6,3.4c0.7-1.5,1.6-2.7,2.8-3.5c1.2-0.8,2.7-1.2,4.4-1.2C392.9,267.7,394.7,268.4,396.1,269.8z"/>
			<path d="M408.6,259.4c0.7,0.7,1,1.5,1,2.6c0,1-0.3,1.9-1,2.6c-0.7,0.7-1.5,1-2.6,1c-1,0-1.9-0.3-2.6-1c-0.7-0.7-1-1.6-1-2.6
				c0-1.1,0.3-1.9,1-2.6c0.7-0.7,1.5-1,2.6-1C407.1,258.4,408,258.7,408.6,259.4z M402.7,267.9h6.8v20.7h-6.8V267.9z"/>
			<path d="M433.8,269.8c1.4,1.4,2,3.4,2,5.8v13h-6.8v-11.1c0-1.2-0.3-2.1-1-2.8c-0.6-0.7-1.5-1-2.6-1c-1.1,0-2,0.4-2.8,1.1
				c-0.7,0.7-1.2,1.7-1.3,2.8v10.9h-6.8v-20.7h6.8v3.4c0.7-1.2,1.7-2.1,2.9-2.7c1.2-0.6,2.5-0.9,4-0.9
				C430.6,267.7,432.4,268.4,433.8,269.8z"/>
			<path d="M460.3,267.9v18.9c0,1.9-0.5,3.6-1.4,5c-0.9,1.4-2.3,2.5-4,3.3c-1.7,0.8-3.7,1.2-5.9,1.2c-1.7,0-3.4-0.2-5-0.7
				c-1.6-0.5-3-1.1-4.2-2l2.4-4.7c0.9,0.6,2,1.1,3.1,1.5c1.1,0.4,2.2,0.5,3.3,0.5c1.5,0,2.7-0.4,3.6-1.1s1.3-1.7,1.3-2.9v-2.2
				c-1.4,1.8-3.3,2.7-5.9,2.7c-1.7,0-3.2-0.4-4.6-1.2c-1.3-0.8-2.4-2-3.1-3.5c-0.8-1.5-1.1-3.3-1.1-5.2c0-1.9,0.4-3.6,1.1-5.1
				c0.7-1.5,1.8-2.6,3.1-3.4c1.3-0.8,2.8-1.2,4.5-1.2c1.3,0,2.4,0.2,3.5,0.7c1,0.5,1.9,1.2,2.6,2v-2.5H460.3z M452.4,281.2
				c0.8-0.9,1.1-2.1,1.1-3.5c0-1.5-0.4-2.6-1.1-3.5c-0.8-0.9-1.8-1.3-3-1.3c-1.3,0-2.3,0.5-3,1.4c-0.8,0.9-1.2,2.1-1.2,3.5
				c0,1.4,0.4,2.6,1.2,3.5c0.8,0.9,1.8,1.3,3,1.3C450.6,282.5,451.6,282.1,452.4,281.2z"/>
			<path d="M472.5,272.4c-0.6,0-1.1,0.1-1.4,0.3c-0.4,0.2-0.5,0.5-0.5,1c0,0.5,0.3,0.8,0.8,1.1c0.6,0.3,1.5,0.6,2.7,0.9
				c1.5,0.4,2.7,0.9,3.7,1.3s1.8,1.1,2.5,1.9c0.7,0.9,1.1,2,1.1,3.3c0,2.1-0.8,3.7-2.4,4.9c-1.6,1.2-3.7,1.8-6.3,1.8
				c-1.8,0-3.4-0.2-5-0.7c-1.6-0.5-3-1.2-4.3-2.2l2.1-4.4c1.2,0.8,2.4,1.4,3.7,1.9c1.3,0.4,2.5,0.7,3.7,0.7c0.7,0,1.2-0.1,1.6-0.3
				c0.4-0.2,0.6-0.5,0.6-0.9c0-0.5-0.3-0.9-0.9-1.2c-0.6-0.3-1.5-0.6-2.7-0.9c-1.5-0.4-2.7-0.9-3.6-1.3s-1.8-1.1-2.5-1.9
				c-0.7-0.8-1.1-1.9-1.1-3.3c0-2.1,0.8-3.7,2.4-4.9c1.6-1.2,3.6-1.8,6.1-1.8c1.5,0,3,0.2,4.5,0.6c1.5,0.4,2.8,1,4.2,1.8l-2.3,4.4
				C476.4,273.1,474.2,272.4,472.5,272.4z"/>
			<path d="M500.6,269c1.7,0.9,3,2.1,4,3.7c0.9,1.6,1.4,3.4,1.4,5.5c0,2.1-0.5,4-1.4,5.6c-0.9,1.6-2.3,2.8-4,3.7
				c-1.7,0.9-3.7,1.3-5.9,1.3s-4.2-0.4-5.9-1.3s-3-2.1-4-3.7c-0.9-1.6-1.4-3.4-1.4-5.6c0-2.1,0.5-3.9,1.4-5.5c0.9-1.6,2.3-2.8,4-3.7
				c1.7-0.9,3.7-1.3,5.9-1.3S498.9,268.1,500.6,269z M491.4,274.6c-0.8,0.9-1.2,2.2-1.2,3.7c0,1.6,0.4,2.8,1.2,3.7
				c0.8,0.9,1.9,1.4,3.2,1.4c1.4,0,2.4-0.5,3.3-1.4c0.8-0.9,1.2-2.2,1.2-3.7c0-1.5-0.4-2.8-1.2-3.7c-0.8-0.9-1.9-1.4-3.2-1.4
				S492.3,273.7,491.4,274.6z"/>
			<path d="M525,269c1.7,0.9,3,2.1,4,3.7c0.9,1.6,1.4,3.4,1.4,5.5c0,2.1-0.5,4-1.4,5.6c-0.9,1.6-2.3,2.8-4,3.7
				c-1.7,0.9-3.7,1.3-5.9,1.3s-4.2-0.4-5.9-1.3s-3-2.1-4-3.7c-0.9-1.6-1.4-3.4-1.4-5.6c0-2.1,0.5-3.9,1.4-5.5c0.9-1.6,2.3-2.8,4-3.7
				c1.7-0.9,3.7-1.3,5.9-1.3S523.3,268.1,525,269z M515.8,274.6c-0.8,0.9-1.2,2.2-1.2,3.7c0,1.6,0.4,2.8,1.2,3.7
				c0.8,0.9,1.9,1.4,3.2,1.4c1.4,0,2.4-0.5,3.3-1.4c0.8-0.9,1.2-2.2,1.2-3.7c0-1.5-0.4-2.8-1.2-3.7c-0.8-0.9-1.9-1.4-3.2-1.4
				S516.7,273.7,515.8,274.6z"/>
			<path d="M553,269.8c1.4,1.4,2,3.4,2,5.8v13h-6.8v-11.1c0-1.2-0.3-2.1-1-2.8c-0.6-0.7-1.5-1-2.6-1c-1.1,0-2,0.4-2.8,1.1
				c-0.7,0.7-1.2,1.7-1.3,2.8v10.9h-6.8v-20.7h6.8v3.4c0.7-1.2,1.7-2.1,2.9-2.7c1.2-0.6,2.5-0.9,4-0.9
				C549.8,267.7,551.6,268.4,553,269.8z"/>
		</g>
	</g>
	<g id="XMLID_3885_">
		<g id="XMLID_3887_">
			<g id="XMLID_13946_">
				<path id="XMLID_13976_" class="st0" d="M296.1,186.7c3.1,0,6.2-0.1,9.3,0c0.9,0,2.1,0.4,2.7,1c1.8,2,0.9,4.4-1.9,4.8
					c-2,0.3-4,0.3-6,0.4c-3.4,0.2-6.8,0.4-10.1,0.6c-2.2,0.1-3.7,0.9-4.6,3.1c-4,9.6-8.7,18.8-11.4,29c-1,3.9-2.7,7.7-4,11.6
					c-1.5,4.6-2.8,9.1-4.1,13.8c-1.4,5.2-2.7,10.4-4.1,15.7c-0.5,2-1,4.1-1.3,6.1c-0.1,0.7,0.2,1.5,0.4,2.2c0.7-0.3,1.5-0.5,1.9-1
					c1.3-1.5,2.6-3.1,3.6-4.8c3.4-5.5,6.7-11.1,9.9-16.7c2.9-5,5.7-10.1,8.5-15.1c0.1-0.3,0.6-0.4,0.9-0.5c0.1,0.4,0.3,0.8,0.2,1.1
					c-0.8,3.3-1.2,6.7-2.4,9.8c-2.5,6.4-5.3,12.7-8.2,19c-1.8,3.8-3.9,7.4-6.1,11c-2,3.2-4.5,5.8-8.3,6.9c-2.4,0.7-4.5,0.6-6.6-0.6
					c-5.8-3.4-8.3-8.6-6.9-15.5c2.3-11.3,4.9-22.4,8.6-33.3c2.7-8,5.5-16,8.4-24c1.7-4.7,3.6-9.3,5.4-14c1-2.5,0.3-3.3-2.5-3.3
					c-5.9,0-11.7,1.4-17.5,1.7c-1.6,0.1-3.2,0.1-4.8,0c-0.9,0-2-0.1-2-1.3c0-1,1.1-0.9,1.9-1c5.8-0.9,11.6-1.7,17.5-2.6
					c2.4-0.3,4.8-0.8,7.1-0.8c2.4,0,3.8-1.2,4.6-3.2c1.2-2.9,2.4-5.9,3.4-8.9c0.9-2.8,1.4-3.3,4.3-2.5c2.2,0.6,4.5,1,6.2,2.8
					c1.8,1.9,2.7,3.8,2,6.5c-0.6,2.1,0,2.7,2.1,2.8c1.4,0,2.8,0,4.2,0C296.1,187.1,296.1,186.9,296.1,186.7z"/>
				<path id="XMLID_13974_" class="st0" d="M321.7,254.5c-5.6,0.2-11.3-3.8-12.9-8.3c-0.6-1.8-1.2-3.6-0.7-5.6
					c0.2-0.6-0.3-1.4-0.5-2.1c-0.5,0.4-1.2,0.7-1.6,1.2c-1.7,2.2-3.5,4.4-5.1,6.7c-2.2,3.2-5.2,5.5-8.3,7.7c-2.1,1.5-7.5,0.6-10-1.2
					c-3.8-2.8-5.3-6.4-4.9-11.2c0.6-6.8,2-13.4,4.3-19.8c1-2.8,1.8-5.7,2.7-8.6c1.5-4.6,3-9.3,4.5-13.9c0.3-1.1,0.9-1.8,2.1-1.7
					c2.9,0.4,5.7,1.3,8,3.2c2.2,1.7,2.9,3.9,1.9,6.7c-1.5,4.1-2.8,8.3-4.2,12.5c-1.8,5.2-3.8,10.3-5.4,15.6c-1,3.2-1.3,6.6-1.9,10
					c-0.1,0.5,0.3,1.1,0.5,1.6c0.4-0.2,1-0.2,1.3-0.5c1.5-1.4,3.2-2.8,4.4-4.5c3.4-4.7,6.6-9.5,9.8-14.3c2.6-3.8,5.2-7.6,7.8-11.3
					c1.8-2.6,3.2-5.3,4.2-8.3c0.9-2.8,2-5.6,3-8.5c0.4-1.3,1.5-1.6,2.6-1.6c3.9,0,7.2,1.5,9.8,4.4c1,1.2,1,2.6,0.5,4.2
					c-2,5.4-3.8,10.9-5.7,16.3c-0.9,2.5-1.9,5.1-2.7,7.6c-1.5,4.3-2.9,8.7-4.3,13.1c-0.1,0.4-0.3,0.8-0.3,1.2c0,0.5,0.2,1.2,0.5,1.3
					c0.5,0.1,1.2,0.1,1.6-0.3c1.7-1.4,3.3-2.9,4.8-4.5c1.6-1.7,3.1-3.4,4.6-5.1c0.5-0.5,1-1,1.5-1.4c0.9-0.7,1.6-0.5,1.7,0.6
					c0,1.9-0.1,3.8-0.5,5.6c-0.9,4.1-3.2,7.5-6,10.5C326.7,253.9,323.8,254.6,321.7,254.5z"/>
				<path id="XMLID_13959_" class="st0" d="M406.6,215.4c-1.3,1.4-2.2,2.5-2.8,4c-0.9,2.4-2.2,4.6-3.3,6.9
					c-2.3,4.9-4.6,9.8-6.8,14.7c-1.1,2.3-2.1,4.7-3.2,7c-1.8,3.8-4.2,5-8.2,3.7c-5.5-1.7-9.7-6.6-8.5-13.3
					c0.9-5.2,2.4-10.3,3.9-15.4c1-3.6,2.4-7.2,3.7-10.7c1.1-3,2.2-6,3.3-9.1c0.3-1,0.5-2,0.8-3c0.6-2.5,1.9-3.4,4.4-3.4
					c2.3,0.1,4.3,0.9,6.1,2c1.9,1.1,2.6,3,2.5,5.1c-0.1,1.7-0.4,3.4-1,5c-2.3,6.8-4.8,13.6-7.2,20.4c-0.6,1.7-1,3.5-1.5,5.2
					c-0.1,0.5-0.2,0.9-0.2,1.4c0,0.4,0.2,0.9,0.3,1.3c0.3-0.3,0.7-0.5,1-0.8c0.2-0.2,0.2-0.5,0.3-0.8c3.3-7.2,6.4-14.6,10-21.7
					c2.8-5.5,6.3-10.6,10.4-15.2c0.6-0.6,1.3-1.2,1.7-1.9c1.4-2.4,3.6-1.7,5.6-1.4c2.2,0.4,4.2,1.5,5.1,3.7c1.1,2.7,1.1,5.5,0.2,8.3
					c-1.2,3.7-2.3,7.4-3.4,11.1c-1.2,3.7-2.4,7.4-3.6,11c-0.2,0.5-0.3,1.1-0.4,1.7c0,0.2,0.2,0.5,0.4,0.6c0.1,0.1,0.4,0,0.5-0.1
					c0.3-0.3,0.6-0.7,0.9-1.1c2.1-3.4,4.3-6.7,6.1-10.3c2.7-5.4,6.3-10.1,9.7-15c1.5-2.3,3.2-4.5,5-6.6c0.5-0.6,1.3-1.1,2.1-1.3
					c6.1-1,10.4,4.3,8.2,10c-3.5,9.2-7.2,18.4-10.7,27.6c-0.9,2.3-1.6,4.7-2.3,7c-0.2,0.6,0.1,1.2,0.2,1.9c0.6-0.3,1.3-0.4,1.6-0.8
					c2-2.2,3.9-4.4,5.9-6.6c0.9-1.1,1.9-2.1,3-3.1c0.7-0.6,1.2-0.3,1.5,0.5c0.2,0.5,0.4,1.2,0.2,1.7c-1.1,3.1-1.1,6.5-3.2,9.3
					c-1.6,2.3-2.9,4.8-5.1,6.8c-3.6,3.4-7.4,3.8-11.1,0.5c-1.8-1.6-3.4-3.6-4.6-5.7c-1.7-2.9-1.1-6.1-0.5-9.2
					c0.6-3.2,1.7-6.2,2.5-9.3c0.1-0.3,0-0.6-0.1-0.9c-0.2,0.1-0.5,0.2-0.7,0.5c-1.1,1.8-2.3,3.5-3.2,5.3c-2.2,4.2-4.3,8.5-6.5,12.6
					c-0.5,1-1.5,1.7-2.3,2.4c-0.6,0.5-1.5,0.7-1.9,1.2c-1.3,1.9-2.9,1.4-4.5,0.9c-3-1-4.8-3.3-6.5-5.7c-1.1-1.7-1.1-3.7-0.6-5.5
					c1.1-4.1,2.3-8.2,3.5-12.3c1-3.3,2.1-6.5,3.2-9.7C406.5,216.5,406.5,216.1,406.6,215.4z"/>
				<path id="XMLID_13956_" class="st0" d="M464.7,255.3c-4.8,0.3-8.7-1.7-12.3-4.3c-7.6-5.6-9.8-13.3-8.1-22.2
					c1.6-8.4,5.1-16.1,10.9-22.4c2.8-3.1,6.3-5.6,9.5-8.2c1.6-1.3,3.5-1.3,5.4-0.7c1.8,0.5,3.7,0.9,5.5,1.6c1.8,0.6,3.6,1.3,5.1,2.4
					c2.6,2.1,3,5,2.2,8.2c-1.5,6.2-4,11.9-6.7,17.6c-1.2,2.5-2.4,5.1-3.9,7.4c-1.1,1.7-2.6,3.3-4.1,4.7c-1.2,1.1-2.7,1.3-4.5,0.7
					c-2.2-0.8-4.2-1.9-5.8-3.6c-0.7-0.8-1.6-1.7-2.5-1c-0.7,0.5-1.2,1.6-1.3,2.5c-0.2,1.9-0.4,3.8-0.2,5.7c0.5,3.5,2.5,6.6,7.1,5.8
					c3.9-0.7,7.1-2.4,10.1-4.9c4.9-4.2,9-9.1,13-14.1c2.6-3.2,5.5-6.4,8.2-9.5c0.3-0.4,0.9-0.5,1.4-0.8c0.2,0.6,0.7,1.3,0.5,1.8
					c-1.3,4.3-2.6,8.6-5.3,12.3c-2.9,4-5.7,8.2-8.8,12.1c-1.8,2.3-4,4.5-6.2,6.4C471.2,254.9,468,255.4,464.7,255.3z M471.1,207.5
					c-0.7,0.4-1.2,0.7-1.6,1.1c-0.7,0.6-1.2,1.3-1.9,1.9c-4.5,4.5-7.7,9.8-10.3,15.6c-0.9,2.2-0.2,3.8,0.8,5.6
					c0.6,1.1,1.3,1.3,2.4,0.5c2.1-1.5,3.3-3.7,4.3-6c2.4-5.4,4.6-10.8,6.8-16.3c0.2-0.4,0.4-1,0.3-1.4
					C471.9,208.2,471.5,207.9,471.1,207.5z"/>
				<path id="XMLID_13953_" class="st0" d="M493.5,255.5c-5.2-0.5-10.2-1.8-14.3-5.3c-1.4-1.1-2.7-2.3-4-3.6
					c-1.5-1.5-1.8-2.8-0.5-4.5c1.2-1.7,2.7-3.2,4.3-4.5c4.3-3.4,8.7-6.7,13.1-10c0.6-0.4,1.2-0.8,1.7-1.2c1.7-1.4,1.9-2.5,1-4.5
					c-0.9-1.9-1.8-3.8-2.8-5.6c-2.6-4.8-3-9.7-1-14.7c1.3-3.2,3.8-5.6,6.3-7.9c0.5-0.5,1.1-0.9,1.7-1.3c2.2-1.3,4.3-2.3,7.1-1.7
					c3.1,0.7,6,1.5,8.6,3.3c0.6,0.4,1.2,0.9,1.5,1.4c0.5,0.9,0.4,1.8-0.7,2.2c-0.2,0.1-0.4,0.1-0.6,0.2c-3.9,0.6-6.8,3.1-9.4,5.5
					c-3.9,3.5-6.3,8-5.1,13.6c0.6,2.9,1.6,3.4,4.1,1.9c2.7-1.6,5.2-3.4,7.9-4.9c4.3-2.5,8.7-4.8,13.1-7.2c1-0.5,1.9-1.1,2.9-1.5
					c0.6-0.3,1.2-0.6,1.9-0.8c0.3-0.1,0.7,0.2,1.1,0.3c-0.1,0.3-0.1,0.8-0.4,1c-1.8,1.4-3.6,2.9-5.5,4.1c-2.1,1.4-4.3,2.4-6.2,4.1
					c-1.9,1.7-4.3,2.8-6.5,4.2c-1.8,1.1-3.5,2.3-5.2,3.5c-2.7,2-3,3-1.6,6c0.5,1.1,1.1,2.1,1.6,3.2c3.6,7.7,1.7,14.6-3.3,21
					c-2.1,2.7-5.3,3.4-8.6,3.6C494.9,255.5,494.2,255.5,493.5,255.5z M486.5,248.3c0-0.1,0-0.2,0-0.3c0.5,0,1,0,1.5,0
					c2-0.2,4.2-0.1,5.7-1.4c4.1-3.7,6.2-8.3,5.4-13.9c-0.3-2.2-1.5-2.7-3.3-1.3c-3.9,3-7.8,5.9-11.6,8.9c-1.3,1-2.6,2.2-3.8,3.4
					c-1.4,1.6-1,3,1,3.6C483.2,247.8,484.9,248,486.5,248.3z"/>
				<path id="XMLID_13950_" class="st0" d="M509.3,238.7c-0.3-4.5,0.8-9.4,3.5-13.8c2.7-4.3,5.1-8.9,8-13c2.4-3.3,5.5-5.9,8.3-8.9
					c0.9-0.9,1.7-2,2.8-2.6c1.6-1,3.5-1.3,5.5-1.3c5.3,0.2,10,1.9,14.3,5.4c1.9,1.6,2.4,1.4,3.4-0.7c0.2-0.5,0.4-0.9,0.6-1.4
					c1.4-3.1,1.7-3.3,5-2.8c4,0.6,7.5,5.1,6.5,9c-0.8,3.2-2.3,6.3-3.4,9.4c-1.5,3.9-2.9,7.8-4.4,11.6c-0.9,2.4-2.1,4.6-2.9,7
					c-0.8,2.3-1.4,4.7-1.9,7c-0.1,0.8,0.4,1.7,0.7,2.6c0.8-0.2,1.8-0.2,2.4-0.7c2.8-2.4,5.4-4.9,8.1-7.4c0.2-0.2,0.3-0.5,0.6-0.7
					c0.9-0.6,1.8-1.1,2.7-1.7c1,1.3,0.2,2.5-0.3,3.4c-1.9,3.9-3.8,7.8-6.1,11.3c-2.7,4.1-7.5,4.9-11.9,2.2
					c-4.7-2.9-7.5-7.1-7.9-12.7c-0.1-0.9-0.2-1.9-0.4-2.8c-0.1-0.4-0.5-1.1-0.8-1.2c-0.4,0-0.9,0.3-1.2,0.7c-3,4.2-5.7,8.6-8.9,12.7
					c-1.8,2.4-4.1,4.2-7.6,4c-2.6-0.2-5.3,0.1-7.7-1.7C512.1,248.7,509.6,244.8,509.3,238.7z M518.6,244.8c0.1,0,0.2,0,0.3,0
					c0.1,0.6,0.1,1.2,0.2,1.9c0,0.3,0.2,0.6,0.4,0.9c0.7,1.4,1.4,1.7,2.7,1c0.7-0.4,1.3-0.9,1.8-1.5c1.4-1.6,2.7-3.2,3.9-4.9
					c3.5-5.1,6.8-10.3,10.3-15.4c3.5-5.2,7.1-10.4,10.7-15.5c0.8-1.1,0.7-2,0-3.1c-1.3-1.8-3.4-2.4-5.1-1.4c-3.5,2-6.4,4.7-9.1,7.6
					c-3.6,3.8-6.6,8.2-9.4,12.7c-2.6,4.2-4.8,8.5-6,13.5C518.9,242,518.8,243.4,518.6,244.8z"/>
				<path id="XMLID_13947_" class="st0" d="M580.2,255.6c-3.1,0.2-5.6-1.4-6.8-4.4c-1.1-2.8-1.7-5.7-1.4-8.8
					c0.3-3.2,0.4-6.5,0.9-9.7c0.8-5.2,1.8-10.3,2.9-15.4c1.6-7.8,4.3-15.3,6.6-22.9c1.9-6.2,4.1-12.2,6.1-18.4
					c0.5-1.5,0.8-3,1.2-4.6c0.3-1.2,0.9-1.7,2.1-1.7c3.2,0.1,6.2,1.1,8.7,3.3c1.5,1.3,1.9,2.9,1.3,5c-1.1,3.6-1.9,7.4-3,11
					c-0.9,2.8-2,5.6-3,8.4c-1.4,3.9-2.8,7.8-4,11.8c-1.5,4.8-2.8,9.7-4,14.6c-0.7,3-1.3,6-1.8,9c-0.4,2.2-0.5,4.4-0.9,6.7
					c-0.5,3.3-0.3,6.6-0.1,9.9c0,0.3,0,0.7,0,1C585.1,254,583.7,255.5,580.2,255.6z M573.1,268.9c0-2,0-4,0-6c0-0.9,0.3-1.7,1.2-2.3
					c2.6-1.5,6.9-1,9,1.2c1.2,1.2,1.7,2.6,1.5,4.3c-0.4,3.6-1.3,7-2.8,10.2c-1,2.3-2.9,3.3-5.1,3.1c-2.2-0.2-3.1-0.9-3.5-3.2
					c-0.2-1.1-0.2-2.1-0.3-3.2c-0.1-0.7-0.1-1.5-0.1-2.2C573.1,270.2,573.1,269.5,573.1,268.9L573.1,268.9z"/>
			</g>
			<g id="XMLID_3890_">
				<path id="XMLID_13943_" class="st0" d="M205.5,190.7c1.8-0.6,3.5-1.2,5.3-1.8c3.3-1.1,5.3-3.2,5.7-6.8c0.1-1.4,0.2-2.8,1.7-3.3
					c1.8-0.6,2.8,0.9,3.5,2.1c2,3.1,4.7,5.9,5.7,9.6c0.3,1.3,0.5,2.6,0.6,3.9c0.2,4.1-1.8,6.9-5.1,8.6c-5.7,3.1-11.6,5.7-18,6.9
					c-9.6,1.8-19.3,3.2-29,3.8c-6.1,0.4-12.2,0-18.3-0.2c-9.1-0.3-17.9-2.5-26.8-4.6c-4-0.9-8-1.4-12.1-2
					c-8.2-1.2-16.4-2.5-24.5-4.5c-5.6-1.4-10.2-4.4-13.9-8.8c-0.2-0.2-0.8-0.5-0.9-0.4c-0.4,0.3-1,0.7-1,1.2c-0.2,3-0.3,6-0.3,9
					c0,4.7,0.1,9.4,0.4,14.1c0.4,7.2,1.1,14.3,2.5,21.3c0.6,3.1,2.4,5.5,4.2,7.9c1.4,2,0.8,5-1.5,6.3c-0.5,0.3-1,0.5-1.5,0.7
					c-3.4,1.4-6.9,1.2-10.3,0c-1.4-0.5-2.8-1.2-4.2-1.4c-3.6-0.5-5.7-2.8-6.9-6c-1.5-3.9-2.7-7.8-3.2-12
					c-1.7-14.1-1.5-28.2-1.2-42.3c0.2-12.4,1.2-24.8,2.5-37.2c0.5-4.7,0.8-9.4,1.2-14.1c0-0.3-0.3-0.7-0.5-0.8
					c-0.3-0.1-0.8-0.1-1,0.1c-1.4,1.5-2.8,3-4,4.6c-5.1,6.4-9.3,13.4-13.6,20.4c-4.1,6.7-7.3,13.9-10.2,21.2
					c-1.2,3.1-1.9,6.5-2.7,9.7c-0.5,2.2-0.9,4.4-1.3,6.6c-0.6,3-0.6,5.6,2.3,7.5c0.3,0.2,0.5,0.5,0.8,0.8c0.8,0.9,1.4,1.8,0.9,3
					c-0.5,1.2-1.6,1.6-2.7,1.7c-4.7,0.1-8.9-1.5-12.2-4.8c-2.7-2.8-5.5-5.6-7.3-9.2c-0.9-1.8-1.6-3.5-1.4-5.4
					c0.4-3.3,0.7-6.7,1.5-10c1.3-4.9,2.9-9.7,4.4-14.5c0.1-0.4,0.2-0.7,0.4-1.1c5.6-9.9,10.4-20.2,17.3-29.3
					c3.3-4.3,6.5-8.5,10-12.6c1.9-2.3,3.8-4.5,5.6-6.9c4.8-6.4,10.9-11.6,16.5-17.3c1.4-1.4,2.3-3.4,3.8-4.7
					c1.4-1.2,3.4-1.5,4.9-2.5c1.2-0.8,2-2.2,3.2-3c3-2.2,5.9-4.7,9.1-6.2c3.9-1.9,7.1-4.7,10.5-7.1c5.8-4.2,12.4-6.6,19.5-7
					c5-0.3,9.9,1,14.7,2.5c5.8,1.7,10.9,4.8,15.2,9c2.4,2.3,3.5,5.4,3.5,8.7c-0.2,8.2-1.5,16.1-6.1,23c-0.5,0.8-1,1.6-1.4,2.5
					c-0.9,2-1.5,4.3-2.7,6.1c-6.3,9.2-11.5,19.2-18.8,27.7c-2.9,3.4-5.6,7-8.3,10.5c-5.7,7.1-12.3,13.4-18.8,19.7
					c-0.4,0.4-0.8,0.7-1.2,1.1c-0.8,0.9-0.7,1.8,0.4,2.1c1.4,0.5,2.8,1,4.3,1.2c6.4,1,12.8,2.4,19.2,2.9c5.8,0.4,11.3,1.9,16.9,3
					c2.2,0.4,4.3,1,6.5,1.4c17.4,3.3,34.7,2.4,51.9-0.5c5.6-0.9,11.1-2.6,16.7-3.9C205.6,191,205.5,190.8,205.5,190.7z M131,89.5
					c-0.5-0.3-1.1-1-1.7-1c-1.5,0-3,0.1-4.3,0.5c-3.9,1.1-7.5,2.9-11.2,4.6c-8.9,4.2-16.7,10.1-24.4,16.1c-2.4,1.9-3.5,4.1-3.9,7
					c-0.8,6.2-1.6,12.3-2.3,18.4c-0.5,4.3-0.5,8.7-1.4,12.9c-1.6,7.4-1.5,14.9-2.3,22.4c-0.1,0.7,0.2,1.4,0.4,2.1
					c0.6-0.2,1.4-0.2,1.9-0.7c2.7-2.8,5.4-5.6,8-8.5c8-9,15.2-18.7,22.5-28.3c1.9-2.5,3.8-5,4.8-8.1c0.7-1.9,1.8-3.7,2.9-5.4
					c3.7-5.9,6.1-12.4,8.9-18.6c1.6-3.5,2.1-7.2,2.3-10.9C131.2,91.3,131.1,90.5,131,89.5z"/>
				<path id="XMLID_13940_" class="st0" d="M194.4,184.5c-7.8,2.4-15.3,0.7-22.4-2.2c-15-6.4-22.1-18.7-22.9-34.7
					c-0.8-15,1.6-29.6,8.7-42.8c3.4-6.4,8.1-12.1,12.4-18c2.1-2.9,5.3-3.6,8.8-3.4c3.3,0.2,6.6,0,9.8,0.4c3.2,0.4,6.6,0.7,9.5,2
					c5.2,2.5,7.1,7.3,7.2,13c0.2,11.2-1.7,22.1-3.8,32.9c-0.9,4.8-1.8,9.7-3.3,14.3c-1.1,3.4-3,6.7-4.9,9.7c-1.6,2.4-3.9,3.4-7.1,3
					c-4-0.5-7.8-1.5-11.2-3.7c-1.5-1-3.3-2.2-4.7-0.7c-1,1.1-1.3,3.2-1.1,4.8c0.4,3.3,0.9,6.7,2.1,9.7c2.3,5.8,7,10.2,14.3,7.1
					c6.3-2.7,10.9-7.1,14.7-12.6c6.3-9.2,11.1-19.3,15.8-29.4c3-6.6,6.4-13.2,9.7-19.7c0.4-0.8,1.4-1.3,2-1.9c0.6,1,1.7,2,1.7,2.9
					c-0.3,7.9-0.6,15.7-3.6,23.2c-3.2,8.1-6.1,16.3-9.6,24.3c-2.1,4.7-4.8,9.3-7.7,13.6C205.2,181.1,199.9,183.4,194.4,184.5z
					 M184.9,100.1c-0.9,1-1.7,1.7-2.3,2.6c-0.9,1.3-1.5,2.7-2.3,4.1c-5.6,9.5-8.7,20-10.5,30.9c-0.7,4.1,1.3,6.7,3.6,9.3
					c1.4,1.6,2.7,1.7,4.2-0.1c2.9-3.5,4-7.7,4.7-12c1.7-10.2,3-20.4,4.5-30.6c0.1-0.8,0.2-1.8-0.1-2.5
					C186.5,101,185.6,100.7,184.9,100.1z"/>
				<path id="XMLID_13937_" class="st0" d="M241.3,174.5c-9,0.9-17.8,0.2-26-4.4c-2.7-1.5-5.4-3.1-8-4.8c-3.1-2.1-3.9-4.3-2.3-7.7
					c1.5-3.3,3.5-6.5,5.8-9.2c6.1-7.3,12.5-14.4,18.7-21.6c0.8-0.9,1.7-1.8,2.5-2.7c2.4-3,2.5-4.9,0.2-8c-2.2-3-4.4-5.9-6.7-8.8
					c-6.1-7.4-8.3-15.9-6.7-25.1c1.1-5.9,4.5-10.9,8-15.7c0.7-1,1.5-1.9,2.4-2.7c3.2-3,6.6-5.4,11.3-5.2c5.4,0.1,10.6,0.6,15.6,2.8
					c1.1,0.5,2.2,1.1,3,2c1.2,1.4,1.2,2.9-0.5,4.1c-0.3,0.2-0.6,0.4-0.9,0.5c-6.4,2.2-10.4,7.6-14.1,12.7
					c-5.4,7.4-7.9,15.9-4.1,25.2c2,4.9,3.8,5.3,7.6,1.9c3.9-3.6,7.6-7.5,11.6-11c6.5-5.7,13.1-11.2,19.7-16.8
					c1.4-1.2,2.9-2.5,4.4-3.6c0.9-0.7,1.9-1.5,2.9-2c0.5-0.2,1.3,0.1,1.9,0.2c-0.1,0.6,0,1.5-0.3,1.9c-2.6,3-5.1,6.1-7.9,8.9
					c-3,3-6.4,5.6-9,9.2c-2.6,3.6-6.3,6.3-9.5,9.4c-2.6,2.5-5.2,5.1-7.6,7.7c-3.9,4.3-4,6.2-0.7,11c1.2,1.7,2.5,3.3,3.8,5.1
					c8.6,12.2,7.9,24.7,1.5,37.3c-2.7,5.4-7.8,7.7-13.3,9C243.7,174.1,242.5,174.3,241.3,174.5z M227.2,164.3c0-0.2,0-0.4,0-0.6
					c0.8-0.2,1.7-0.3,2.5-0.5c3.3-1,7-1.5,9.2-4.4c5.7-7.7,7.6-16.3,4.5-25.7c-1.2-3.8-3.4-4.1-5.9-1.2
					c-5.6,6.4-11.1,12.8-16.6,19.2c-1.9,2.2-3.8,4.6-5.2,7.1c-1.9,3.3-0.7,5.6,2.9,5.9C221.3,164.5,224.3,164.3,227.2,164.3z"/>
				<path id="XMLID_13913_" class="st0" d="M305.6,163.3c-8,1.6-15.3-0.8-22-4.5c-14.3-7.9-20-20.9-19.2-36.9
					c0.8-15,4.7-29.2,13.1-41.6c4.1-6,9.3-11.2,14.2-16.6c2.4-2.6,5.7-3,9.1-2.5c3.2,0.5,6.5,0.7,9.7,1.4c3.2,0.7,6.5,1.4,9.2,3
					c5,3,6.3,8,5.8,13.7c-1,11.1-4,21.8-7.2,32.3c-1.4,4.7-2.8,9.4-4.8,13.9c-1.5,3.3-3.7,6.3-5.9,9.1c-1.8,2.3-4.3,3-7.4,2.3
					c-4-0.9-7.6-2.3-10.7-4.9c-1.4-1.1-3.1-2.5-4.6-1.2c-1.1,1-1.7,3.1-1.6,4.6c0,3.3,0.2,6.8,1.1,9.9c1.7,6,5.9,10.9,13.4,8.5
					c6.5-2.1,11.6-5.9,15.9-11c7.2-8.5,13-18,18.7-27.7c3.7-6.3,7.7-12.4,11.7-18.6c0.5-0.8,1.5-1.2,2.2-1.7c0.5,1,1.5,2.1,1.3,3.1
					c-1.2,7.8-2.3,15.6-6,22.7c-4,7.7-7.8,15.6-12.1,23.2c-2.6,4.5-5.7,8.7-9.1,12.7C316.8,161.1,311.3,162.8,305.6,163.3z
					 M304.9,78.4c-1,0.9-1.9,1.5-2.5,2.3c-1,1.2-1.8,2.6-2.7,3.8c-6.6,8.9-10.7,19-13.6,29.7c-1.1,4,0.6,6.8,2.7,9.6
					c1.3,1.7,2.5,2,4.2,0.3c3.2-3.2,4.7-7.3,5.9-11.5c2.7-10,5.1-20,7.7-30c0.2-0.8,0.4-1.8,0.2-2.5C306.5,79.5,305.6,79,304.9,78.4
					z"/>
				<path id="XMLID_3897_" class="st0" d="M393.1,88.1c0.5-4,1.1-8,1.6-12c0.1-0.8-0.3-1.6-0.5-2.4c-0.6,0.5-1.5,0.8-1.9,1.4
					c-1.9,2.9-3.9,5.8-5.5,8.9c-6.3,12.3-12.5,24.6-17.2,37.7c-3.5,9.5-7.6,18.8-11.6,28.1c-3.3,7.7-6,8.3-13.2,4
					c-4.9-2.9-9-6.6-11.1-12.1c-0.9-2.4-1.4-5.3-0.9-7.7c2.6-11.6,5.4-23.2,9.9-34.3c5.4-13.3,10.3-26.7,15.4-40.1
					c1.9-5,4.1-6.6,8.9-4.9c2.9,1,5.6,2.7,8.1,4.6c2.8,2.1,4.1,5.2,3.5,8.9c-0.2,1.2-0.3,2.4-0.4,3.7c0,0.5,0.3,0.9,0.4,1.4
					c0.4-0.2,1.1-0.3,1.3-0.6c2-2.4,3.9-4.9,5.7-7.4c2.5-3.3,4.8-6.8,7.4-10c2-2.6,4.2-5.1,6.5-7.4c7.8-7.3,20.6-4.2,24.2,5.9
					c0.7,1.8,0.6,4.2,0.2,6.2c-1.3,6-2.1,12.2-5.2,17.6c-0.1,0.2-0.2,0.3-0.2,0.5c-0.3,1.8-1.9,4,0.2,5.3c2.1,1.3,3.3-0.9,4.6-2.2
					c2.9-3,5.8-6,8.8-8.9c0.5-0.5,1.7-1,2.3-0.7c0.5,0.2,0.8,1.4,0.9,2.2c0.1,1,0.3,2.3-0.1,3.1c-3,6.1-6,12.2-9.5,18
					c-1.9,3.3-4.7,6-7.2,8.9c-4.2,5-11.8,5.8-17.1,0.9C396.7,100.4,393.2,95.1,393.1,88.1z"/>
				<path id="XMLID_3895_" class="st0" d="M472.8,82.8c-0.8-4.8,0.3-9,2.2-13.3c2.5-5.6,4.5-11.4,6.7-17.1c0.4-1,0.7-2,1.1-2.9
					c1.7-3.5,3.1-4.5,6.5-3.2c3.7,1.4,7.4,3,10.6,5.2c3.5,2.5,4.9,6.2,3,10.7c-2.6,6.3-5.1,12.6-7.7,18.9c-0.2,0.5-0.7,0.9-0.7,1.4
					c-0.1,1.1-0.1,2.3-0.2,3.5c1-0.5,2.2-0.7,3-1.5c4.4-3.9,8.7-8,13-12c0.5-0.5,1-1,1.5-1.4c1.1-0.8,1.9-0.5,2.2,0.9
					c0.6,4-0.2,7.8-2,11.3c-2.3,4.3-4.7,8.6-7.5,12.6c-3.5,5.2-8.7,6.5-14.6,5.8c-1-0.1-2-0.5-3-0.6c-3.7-0.7-4.5-0.2-6,3.2
					c-2.9,6.4-5.6,12.8-8.6,19.2c-3.6,7.4-7.4,14.7-12.6,21.1c-2,2.4-4.4,4.4-6.6,6.6c-0.2,0.2-0.6,0.4-0.9,0.5
					c-5.8,1.1-12.1,2.2-17.1-1c-7.6-4.8-14.2-11.3-15.8-21.2c-0.6-3.6-0.9-7.4-0.4-11c2.4-16,5.9-31.8,11-47.2
					c1.7-5.3,3.2-10.8,4.9-16.1c1.4-4.4,1.4-4.1,6.2-4.3c5.4-0.2,9.7,1.9,13.4,5.6c2.5,2.6,3.5,5.5,2.7,9.1
					c-1.3,5.3-2.5,10.5-3.9,15.8c-2.3,9-4.8,18-7.1,27c-1.4,5.6-2.8,11.2-3.7,16.9c-0.7,4.1-0.6,8.4-0.8,12.6c0,0.5,0.1,1.1,0.2,1.6
					c0.7,2.4,2.6,3.2,4.2,1.3c2.8-3.3,5.4-6.9,7.7-10.6c7.3-11.8,12.2-24.8,17.8-37.5C472.7,89.7,472.4,86.1,472.8,82.8z"/>
				<path id="XMLID_3891_" class="st0" d="M494,123.9c0.1-8,2.6-16.4,8-23.7c5.3-7.2,9.9-15,15.6-21.8c4.5-5.4,10.2-9.7,15.5-14.4
					c1.7-1.5,3.2-3.3,5.2-4.2c2.9-1.5,6.1-1.8,9.5-1.5c9,1,16.9,4.8,23.7,11.5c3.1,3,3.9,2.9,5.9-0.7c0.4-0.8,0.8-1.6,1.3-2.3
					c2.7-5.3,3.4-5.6,9-4.3c6.7,1.6,12.1,9.9,9.9,16.6c-1.8,5.6-4.7,10.7-7.2,16c-3,6.6-6,13.2-9.1,19.8c-1.9,4-4.2,7.8-6,11.9
					c-1.7,3.9-3.1,8-4.2,12.1c-0.4,1.3,0.5,3.1,0.8,4.7c1.4-0.3,3.1-0.2,4.2-1c5.1-3.8,10-7.9,14.9-11.9c0.4-0.3,0.6-0.9,1-1.2
					c1.6-0.9,3.2-1.7,4.8-2.6c1.5,2.4-0.1,4.5-0.9,6c-3.7,6.6-7.6,13.1-12,19.1c-5.2,6.9-13.6,7.7-20.8,2.2
					c-7.6-5.7-11.8-13.5-11.8-23.3c0-1.6-0.1-3.3-0.4-5c-0.1-0.8-0.7-2.1-1.2-2.1c-0.7-0.1-1.7,0.5-2.2,1.1c-5.7,7-11,14.4-17,21.1
					c-3.4,3.9-7.7,6.9-13.5,6c-4.5-0.7-9.1-0.5-12.9-4C497.4,141.9,493.6,134.6,494,123.9z M509.1,135.9c0.2,0,0.3,0.1,0.5,0.1
					c0,1.1-0.1,2.2,0,3.3c0,0.5,0.3,1.1,0.5,1.6c1,2.6,2.1,3.2,4.4,2.1c1.2-0.6,2.4-1.4,3.3-2.4c2.5-2.6,5.1-5.2,7.4-8
					c6.7-8.5,13.1-17.2,19.7-25.7c6.8-8.7,13.6-17.3,20.5-25.8c1.5-1.9,1.5-3.5,0.4-5.5c-1.9-3.3-5.5-4.6-8.6-3.1
					c-6.2,3-11.6,7.4-16.6,12.1c-6.7,6.2-12.4,13.5-17.8,21c-5,7-9.5,14.3-12.1,22.8C510,130.9,509.6,133.4,509.1,135.9z"/>
			</g>
		</g>
		<path id="XMLID_3886_" class="st0" d="M576.1,16.6c1.5-2.9,3-5.8,4.6-8.6c0.7-1.3,1.8-2.3,3.5-2.4c4.9-0.2,10.7,3.8,12.1,8.5
			c0.8,2.6,0.5,5.1-1.1,7.3c-3.3,4.8-7.2,9.1-11.8,12.7c-3.3,2.5-6.7,2.6-9.7,0.6c-3.1-2-3.7-3.7-2.6-7.2c0.5-1.7,1.3-3.2,2-4.8
			c0.5-1.1,1-2.2,1.6-3.3C575.1,18.5,575.6,17.6,576.1,16.6L576.1,16.6z"/>
	</g>
</g>
</svg>
