<?xml version="1.0" encoding="utf-8"?>
<!-- Generator: Adobe Illustrator 21.0.2, SVG Export Plug-In . SVG Version: 6.00 Build 0)  -->
<svg version="1.1" id="Layer_1" xmlns="http://www.w3.org/2000/svg" xmlns:xlink="http://www.w3.org/1999/xlink" x="0px" y="0px"
	 viewBox="0 0 35 35" style="enable-background:new 0 0 35 35;" xml:space="preserve">
<style type="text/css">
	.st0{fill:#231F20;}
</style>
<g>
	<path class="st0" d="M9.7,20.6c-0.2-0.5-0.3-1-0.4-1.5l-3.5,3l4.6-0.2C10.1,21.5,9.9,21,9.7,20.6L9.7,20.6z M9.7,20.6"/>
	<path class="st0" d="M11.2,23l-1.6,4.4l3.9-2.5c-0.4-0.2-0.9-0.5-1.3-0.8C11.9,23.7,11.5,23.4,11.2,23L11.2,23z M11.2,23"/>
	<path class="st0" d="M25.3,14.4c0.2,0.5,0.3,1,0.4,1.5l3.5-3l-4.6,0.2C24.9,13.5,25.1,14,25.3,14.4L25.3,14.4z M25.3,14.4"/>
	<path class="st0" d="M23.8,12l1.6-4.4l-3.9,2.5c0.4,0.2,0.9,0.5,1.3,0.8C23.1,11.3,23.5,11.6,23.8,12L23.8,12z M23.8,12"/>
	<path class="st0" d="M20.2,9.6L19.4,5l-2.2,4.1c0.5,0,1,0,1.5,0.1C19.3,9.3,19.8,9.4,20.2,9.6L20.2,9.6z M20.2,9.6"/>
	<path class="st0" d="M14.4,9.7c0.5-0.2,1-0.3,1.5-0.4l-3-3.5l0.2,4.6C13.5,10.1,14,9.9,14.4,9.7L14.4,9.7z M14.4,9.7"/>
	<path class="st0" d="M10.9,12.3c0.3-0.4,0.7-0.8,1.1-1.1L7.6,9.6l2.5,3.9C10.3,13.1,10.6,12.7,10.9,12.3L10.9,12.3z M10.9,12.3"/>
	<path class="st0" d="M9.2,16.2c0.1-0.5,0.2-1,0.4-1.5L5,15.6l4.1,2.2C9.1,17.3,9.1,16.8,9.2,16.2L9.2,16.2z M9.2,16.2"/>
	<path class="st0" d="M14.8,25.4l0.8,4.6l2.2-4.1c-0.5,0-1,0-1.5-0.1C15.7,25.7,15.2,25.6,14.8,25.4L14.8,25.4z M14.8,25.4"/>
	<path class="st0" d="M20.6,25.3c-0.5,0.2-1,0.3-1.5,0.4l3,3.5l-0.2-4.6C21.5,24.9,21,25.1,20.6,25.3L20.6,25.3z M20.6,25.3"/>
	<path class="st0" d="M24,22.7c-0.3,0.4-0.7,0.8-1,1.1l4.4,1.5l-2.5-3.9C24.7,21.9,24.4,22.3,24,22.7L24,22.7z M24,22.7"/>
	<path class="st0" d="M25.8,18.8c-0.1,0.5-0.2,1-0.4,1.5l4.6-0.8l-4.1-2.2C25.9,17.7,25.9,18.2,25.8,18.8L25.8,18.8z M25.8,18.8"/>
	<path class="st0" d="M18.5,10.9c-3.7-0.6-7.1,2-7.6,5.6c-0.6,3.7,2,7.1,5.6,7.6c3.7,0.6,7.1-2,7.6-5.6
		C24.7,14.8,22.2,11.4,18.5,10.9L18.5,10.9z M18.5,10.9"/>
</g>
</svg>
