<?xml version="1.0" encoding="utf-8"?>
<!-- Generator: Adobe Illustrator 21.0.2, SVG Export Plug-In . SVG Version: 6.00 Build 0)  -->
<svg version="1.1" id="Layer_1" xmlns="http://www.w3.org/2000/svg" xmlns:xlink="http://www.w3.org/1999/xlink" x="0px" y="0px"
	 viewBox="0 0 35 35" style="enable-background:new 0 0 35 35;" xml:space="preserve">
<style type="text/css">
	.st0{fill:#231F20;}
</style>
<g>
	<path class="st0" d="M13.8,8.5c0.2,1.5,0.4,2.9,0.6,4.4c2.1,0,4.3,0,6.5,0c0,0.7,0,1.3,0,2c-2,0-4.1,0-6.2,0c0.1,0.7,0.2,1.3,0.2,2
		c0.2,0,0.4,0,0.5,0c2,0,4.1,0,6.1,0c0.6,0,1,0.2,1.3,0.8c1,2.1,2,4.1,3.1,6.1c0.1,0.2,0.2,0.3,0.3,0.6c1-0.5,2-1,3-1.5
		c0.3,0.6,0.6,1.1,0.9,1.7c-0.2,0.1-0.3,0.2-0.4,0.2c-1.1,0.5-2.1,1.1-3.2,1.6c-0.9,0.5-1.3,0.3-1.8-0.6c-1.1-2.2-2.2-4.4-3.3-6.5
		c-0.2-0.3-0.3-0.5-0.7-0.5c-2.2,0-4.3,0-6.5,0c-0.8,0-1.2-0.3-1.3-1.1c-0.5-3.8-1-7.7-1.4-11.5c-0.2-1.4,0.7-2.5,2.1-2.7
		c1.2-0.2,2.5,0.7,2.7,1.9c0.3,1.3-0.5,2.5-1.7,2.9C14.4,8.4,14.1,8.4,13.8,8.5z"/>
	<path class="st0" d="M10.9,13.5c0.1,0.5,0.1,1.1,0.2,1.6c0.1,0.3-0.1,0.4-0.3,0.6c-2,1.1-3.3,2.7-3.7,5c-0.7,4.3,2.5,7.4,5.5,7.9
		c3.6,0.6,6.9-1.5,7.9-5c0.2-0.6,0.2-1.2,0.3-2c0.5,1,1,1.9,1.4,2.8c0,0.1,0,0.3-0.1,0.4c-1.3,3.4-3.8,5.3-7.4,5.8
		c-4.4,0.6-8.3-2.4-9.4-6.3c-1.3-4.7,1.3-9.1,5.3-10.6C10.8,13.5,10.8,13.5,10.9,13.5z"/>
</g>
</svg>
