<?xml version="1.0" encoding="utf-8"?>
<!-- Generator: Adobe Illustrator 21.0.2, SVG Export Plug-In . SVG Version: 6.00 Build 0)  -->
<svg version="1.1" id="Layer_1" xmlns="http://www.w3.org/2000/svg" xmlns:xlink="http://www.w3.org/1999/xlink" x="0px" y="0px"
	 viewBox="0 0 35 35" style="enable-background:new 0 0 35 35;" xml:space="preserve">
<style type="text/css">
	.st0{fill:#231F20;}
</style>
<g>
	<path class="st0" d="M29.6,8.8c-0.4-0.3-1-0.2-1.3,0.3L25.6,13c-0.3-0.1-0.6-0.2-1-0.2h-1.4c-0.3,0-0.7,0.1-1,0.2L19.6,9
		c-0.3-0.4-0.9-0.6-1.3-0.3c-0.4,0.3-0.6,0.9-0.3,1.3l3,4.5c0,0.2,0,12.8,0,12.8c0,0.7,0.5,1.2,1.2,1.2c0.7,0,1.2-0.5,1.2-1.2V22h1
		v5.4c0,0.7,0.5,1.2,1.2,1.2s1.2-0.5,1.2-1.2c0-4.6,0-12.6,0-12.8l3.1-4.5C30.1,9.7,30,9.1,29.6,8.8L29.6,8.8z M29.6,8.8"/>
	<path class="st0" d="M23.9,12.1c1.3,0,2.3-1,2.3-2.3c0-0.8-0.4-1.5-1-1.9c0.1-0.1,0.3-0.2,0.4-0.2c0.1,0,0.1-0.1,0.1-0.2
		c0-0.1,0-0.2-0.1-0.2C25.3,7,24.8,7,24.4,7.1c0.1-0.1,0.2-0.3,0.3-0.4c0.1-0.1,0.1-0.2,0-0.2c0-0.1-0.1-0.1-0.2-0.1
		c-0.8,0-1.6,0.9-1.9,1.4c-0.1,0.1-0.1,0.2-0.1,0.3c-0.5,0.4-0.8,1.1-0.8,1.8C21.6,11,22.7,12.1,23.9,12.1L23.9,12.1z M23.9,12.1"/>
	<path class="st0" d="M16.7,8.8c-0.4-0.3-1-0.2-1.3,0.3L14.8,10c-0.2-0.1-0.5-0.1-0.8,0c0,0,0,0,0,0l0,0c0.1-0.2,0-0.4-0.2-0.5
		c-0.1,0-0.3,0-0.4,0.1c-0.1-1.2-1.1-2.1-2.3-2.1c-1.2,0-2.2,0.9-2.3,2.1C8.7,9.5,8.6,9.5,8.4,9.5C8.2,9.6,8.1,9.8,8.2,10l0,0
		c0,0,0,0,0,0c-0.3-0.1-0.5-0.1-0.8,0L6.8,9C6.5,8.6,5.9,8.5,5.4,8.8C5,9.1,4.9,9.7,5.2,10.1l1.1,1.6c-0.1,0.3-0.1,0.6,0,0.9
		c0,0.1,0.1,0.1,0.2,0.1c0.1,0,0.2,0,0.2-0.1c0-0.1,0.1-0.1,0.1-0.1l1.4,2.1c0,0.2,0,0,0,3.1l-1.3,5.3c-0.1,0.2,0,0.5,0.2,0.7
		c0.2,0.2,0.4,0.3,0.7,0.3h0.5v3.4c0,0.7,0.5,1.2,1.2,1.2c0.7,0,1.2-0.5,1.2-1.2v-3.4h1v3.4c0,0.7,0.5,1.2,1.2,1.2
		c0.7,0,1.2-0.5,1.2-1.2v-3.4h0.5c0.3,0,0.5-0.1,0.7-0.3c0.2-0.2,0.2-0.5,0.2-0.7L14,17.7c0-3.1,0-2.9,0-3.1l1.4-2.1
		c0,0,0.1,0.1,0.1,0.1c0,0.1,0.1,0.1,0.2,0.1c0.1,0,0.2-0.1,0.2-0.1c0.1-0.3,0.1-0.6,0-0.9l1.1-1.6C17.3,9.7,17.2,9.1,16.7,8.8
		L16.7,8.8z M12.8,13c-0.3-0.1-0.6-0.2-1-0.2h-1.4c-0.3,0-0.7,0.1-1,0.2l-1-1.6c0.1-0.1,0.1-0.1,0.2-0.2c0-0.1,0.1-0.1,0.1-0.2
		c0.1,0.1,0.2,0.1,0.3,0.1c0,0,0.1,0,0.1,0c0.1,0,0.1-0.1,0.2-0.1c0.4,0.6,1.1,1,1.9,1c0.8,0,1.5-0.4,1.9-1c0,0.1,0.1,0.1,0.2,0.1
		c0,0,0.1,0,0.1,0c0.1,0,0.2,0,0.3-0.1c0,0.1,0,0.1,0.1,0.2c0,0.1,0.1,0.1,0.2,0.2L12.8,13z M12.8,13"/>
</g>
</svg>
