<?xml version="1.0" encoding="utf-8"?>
<!-- Generator: Adobe Illustrator 21.0.2, SVG Export Plug-In . SVG Version: 6.00 Build 0)  -->
<svg version="1.1" id="Layer_1" xmlns="http://www.w3.org/2000/svg" xmlns:xlink="http://www.w3.org/1999/xlink" x="0px" y="0px"
	 viewBox="0 0 35 35" style="enable-background:new 0 0 35 35;" xml:space="preserve">
<style type="text/css">
	.st0{fill:#231F20;}
</style>
<path class="st0" d="M24.2,20c0,0.3,0,0.7-0.1,1c-0.2,1.3-1.5,2.4-2.8,2.4c-3.3,0-6.5,0-9.8,0c-1.5,0-2.7-1.3-2.8-2.8
	c-0.1-1.9,0-3.9,0-5.8c0-1.4,0-2.8,0-4.1c0-0.7,0.3-1,1.1-1c5.1,0,10.2,0,15.3,0c3.8,0,6.3,4.1,4.6,7.4c-0.9,1.8-2.5,2.8-4.6,2.9
	c-0.3,0-0.5,0-0.8,0C24.4,19.9,24.3,20,24.2,20z M24.2,17.3c1.3,0.2,2.4-0.1,3.1-1.3c0.5-0.9,0.4-1.9-0.2-2.8c-0.7-1-1.8-1.1-2.9-1
	C24.2,13.9,24.2,15.6,24.2,17.3z"/>
<path class="st0" d="M4.5,22.2c8.1,0,16.1,0,24.1,0c0,1.3-0.6,2.2-1.6,2.9c-0.6,0.4-1.3,0.5-2,0.5c-5.6,0-11.3,0-16.9,0
	c-1.7,0-3.1-1-3.5-2.6C4.5,22.7,4.5,22.5,4.5,22.2z"/>
</svg>
