<?xml version="1.0" encoding="utf-8"?>
<!-- Generator: Adobe Illustrator 21.0.2, SVG Export Plug-In . SVG Version: 6.00 Build 0)  -->
<svg version="1.1" id="Layer_1" xmlns="http://www.w3.org/2000/svg" xmlns:xlink="http://www.w3.org/1999/xlink" x="0px" y="0px"
	 viewBox="0 0 35 35" style="enable-background:new 0 0 35 35;" xml:space="preserve">
<style type="text/css">
	.st0{fill:#231F20;}
</style>
<g>
	<g>
		<path class="st0" d="M23.4,16.5c1.5-1.4,2.2-3,2-4.6c-0.1-0.7-0.6-2.3-1.2-3.9c-0.3-0.8-0.6-1.5-0.9-2c-0.4-0.8-0.7-1-1-1h-9.7
			c-0.3,0-0.6,0.3-1,1c-0.3,0.5-0.5,1.2-0.9,2c-0.6,1.6-1.1,3.2-1.2,3.9c-0.4,3.3,3.1,6.4,6.7,7c0,0.6,0.1,2.2,0.1,4.1
			c0,3.1-0.2,4.2-0.3,4.4c-0.1,0.2-1,0.5-2.2,0.6l0,0c-0.7,0.1-1.9,0.2-1.9,1.1c0,0.4,0.2,0.6,0.4,0.7C12.5,30,12.7,30,13,30
			c0.1,0,0.1,0,0.2,0c0.1,0,0.1,0,0.2,0h8.2c0.1,0,0.1,0,0.2,0c0.1,0,0.1,0,0.2,0c0.3,0,1.2,0,1.2-0.9c0-0.9-1.3-1-1.9-1.1l0,0
			c-1.3-0.1-2.1-0.4-2.2-0.6c-0.1-0.2-0.3-1.3-0.3-4.4c0-2,0.1-3.6,0.1-4.1C20.5,18.6,22.2,17.7,23.4,16.5L23.4,16.5z M17.8,22.9
			c0,2.8,0.1,4.4,0.4,4.8c0.4,0.7,2,0.9,2.9,1l0,0c0.4,0,1.2,0.1,1.2,0.3c0,0.1,0,0.1,0,0.1c0,0-0.1,0-0.3,0c-0.1,0-0.1,0-0.2,0
			c-0.1,0-0.2,0-0.2,0h-8.2c-0.1,0-0.2,0-0.2,0c-0.1,0-0.1,0-0.2,0c-0.2,0-0.3,0-0.3,0c0,0,0,0,0-0.1c0-0.2,0.8-0.3,1.2-0.3l0,0
			c0.9-0.1,2.4-0.3,2.9-1c0.1-0.1,0.4-0.6,0.4-4.8c0-1,0-2.1,0-2.9c0-1.4-0.1-1.5-0.1-1.6c-0.1-0.1-0.2-0.2-0.3-0.2
			c-1.6-0.2-3.3-1-4.5-2.2c-1.3-1.2-1.9-2.7-1.8-4c0.2-1.4,1.8-5.7,2.3-6.3h9.4c0.6,0.6,2.2,4.9,2.3,6.3c0.4,2.9-3,5.7-6.2,6.2
			c-0.1,0-0.3,0.1-0.3,0.2C17.8,18.8,17.8,22.8,17.8,22.9L17.8,22.9z M17.8,22.9"/>
		<path class="st0" d="M22.2,15.4c0.6-0.6,1-1.2,1.1-1.9c0-0.1,0-0.3-0.2-0.3c-2.8,0-8.4,0-11.1,0c-0.2,0-0.2,0.2-0.2,0.3
			c0.1,0.7,0.5,1.3,1.1,1.9c1,1.1,2.2,1.7,3.7,1.8c0.2,0,0.6,0,1,0c0.4,0,0.7,0,0.9,0C19.9,17.2,21.2,16.5,22.2,15.4L22.2,15.4z
			 M22.2,15.4"/>
	</g>
</g>
</svg>
