<?xml version="1.0" encoding="utf-8"?>
<!-- Generator: Adobe Illustrator 21.0.2, SVG Export Plug-In . SVG Version: 6.00 Build 0)  -->
<svg version="1.1" id="Layer_1" xmlns="http://www.w3.org/2000/svg" xmlns:xlink="http://www.w3.org/1999/xlink" x="0px" y="0px"
	 viewBox="0 0 35 35" style="enable-background:new 0 0 35 35;" xml:space="preserve">
<style type="text/css">
	.st0{fill:#231F20;}
</style>
<g>
	<path class="st0" d="M10,7.5c0.8,0,1.6,0.3,2.4,0.7c1,0.7,1.8,1.6,2.5,2.5c0.8,1,1.5,2.1,2.2,3.2c0.1,0.2,0.5,0.3,0.7,0
		c0.2-0.3,0.5-0.5,0.7-0.7c0,0,0.1-0.1,0.2-0.1c0,0.1,0.1,0.1,0.1,0.2c0,0.3,0.1,0.6,0,0.8c-0.3,0.5-0.1,1-0.1,1.6
		c0,0.1,0.1,0.2,0.2,0.1c0.2-0.1,0.3-0.3,0.5-0.4c0.4-0.3,0.8-0.5,1.3-0.8c0.1,0,0.2-0.1,0.3-0.1c0.6,0,1.1,0,1.7,0
		c0.1,0,0.2,0.1,0.3,0.1c0,0.1,0,0.2-0.1,0.3c-0.2,0.1-0.4,0.3-0.5,0.4c-0.4,0.2-0.8,0.5-1.3,0.7c-0.3,0.1-0.7,0.1-1,0.2
		c-0.3,0-0.7,0-1,0.1c0,0-0.1,0-0.1,0c-0.2,0-0.2,0.1-0.1,0.2c0.4,0.6,0.8,1.2,1.1,1.9c0.8,1.4,1.7,2.8,2.5,4.2
		c0.4,0.7,0.9,1.3,1.5,1.7c0.8,0.6,1.7,0.7,2.7,0.3c0.6-0.2,1.1-0.6,1.7-0.8c0.1-0.1,0.3-0.1,0.4-0.1c0.2,0,0.2,0.1,0.1,0.3
		c-0.1,0.1-0.2,0.2-0.4,0.3c-0.8,0.4-1.5,0.9-2.3,1.3c-0.9,0.5-1.8,0.7-2.8,0.6c-0.7,0-1.2-0.3-1.7-0.8c-0.8-0.7-1.4-1.6-1.9-2.6
		c-0.6-1-1.1-1.9-1.7-2.9c-0.3-0.6-0.7-1.1-1-1.7c-0.1-0.3-0.3-0.3-0.6-0.2c-0.9,0.3-1.6,0.8-2.3,1.4c-0.3,0.3-0.6,0.6-0.9,1
		c0,0,0,0.1-0.1,0.2c0.1,0,0.2,0.1,0.3,0c0.2-0.1,0.4-0.2,0.6-0.3c0.2-0.1,0.5-0.3,0.7-0.4c0,0,0.1,0,0.2,0c0.1,0,0.3,0.1,0.3,0.1
		c0,0.1,0,0.2-0.1,0.3c-0.4,0.5-0.6,1.1-0.8,1.6c-0.2,0.6-0.5,1.2-0.7,1.8c-0.2,0.6-0.4,1.2-0.6,1.7c-0.1,0.2-0.2,0.4-0.3,0.5
		c-0.5,0.5-1,1.1-1.4,1.7c0,0.1-0.1,0.1-0.2,0.1c0-0.1-0.1-0.1-0.1-0.2c0-0.4,0-0.7,0-1.1c0.1-0.7,0.2-1.3,0.4-2
		c0.1-0.5,0.4-1,0.5-1.5c0.1-0.2,0.2-0.5,0.3-0.7c0-0.1,0-0.2-0.1-0.3c0-0.1-0.2-0.1-0.3,0c-0.8,0.3-1.6,0.8-2.3,1.4
		c-0.5,0.6-1,1.1-1.5,1.7c-0.3,0.4-0.6,0.9-1,1.3C7.2,26.8,7,26.9,6.9,27c-0.1,0.1-0.4,0.2-0.5,0.1c-0.1-0.1-0.3-0.3-0.2-0.5
		c0-0.1,0.1-0.3,0.2-0.4c0.6-0.7,1.2-1.4,1.8-2.1c0.6-0.6,1.2-1.2,1.8-1.8c1-0.9,2.1-1.9,3.2-2.8c0.9-0.7,1.8-1.4,2.7-2.2
		c0.3-0.2,0.3-0.5,0.1-0.8c-1-1.4-1.9-2.9-2.9-4.3c-0.5-0.7-1-1.3-1.5-1.9c-0.6-0.6-1.3-1-2.1-1.2C8.4,8.9,7.3,9.1,6.3,9.6
		C6,9.7,5.7,9.9,5.4,10.1c-0.1,0.1-0.3,0.2-0.4,0C5,10.1,5,9.8,5.2,9.7c0.3-0.3,0.7-0.6,1-0.8c0.5-0.3,1-0.6,1.5-0.8
		C8.4,7.7,9.2,7.5,10,7.5z"/>
	<path class="st0" d="M25.3,12.1c-0.5,0-1.1,0-1.6-0.1c0,0-0.1,0-0.1,0c-0.1,0-0.1-0.1,0-0.2c0.1-0.1,0.3-0.3,0.4-0.4
		c0.5-0.3,1-0.7,1.4-1c0.1-0.1,0.3-0.1,0.4-0.1c0.6,0,1.2,0,1.9,0.1c0.1,0,0.3,0,0.4,0c0.1,0,0.1,0,0.2,0.1c0,0.1,0,0.1-0.1,0.2
		c-0.4,0.3-0.8,0.6-1.2,1c-0.4,0.4-0.8,0.5-1.3,0.4C25.5,12.1,25.4,12.1,25.3,12.1C25.3,12.1,25.3,12.1,25.3,12.1z"/>
	<path class="st0" d="M23.4,14.1c-0.6,0-1.2-0.1-1.8-0.1c-0.1,0-0.2-0.1-0.3-0.1c0.1-0.1,0.1-0.2,0.2-0.3c0.5-0.3,1-0.7,1.6-1
		c0.3-0.2,0.5-0.1,0.8-0.1c0.6,0.1,1.2,0.1,1.8,0.2c0.1,0,0.1,0.1,0.2,0.1c0,0.1-0.1,0.1-0.1,0.2c-0.5,0.4-1.1,0.7-1.6,1.1
		c-0.1,0.1-0.3,0-0.5,0C23.5,14.1,23.4,14.1,23.4,14.1C23.4,14.1,23.4,14.1,23.4,14.1z"/>
	<path class="st0" d="M23.7,10.1c0,0.3,0,0.6,0,0.8c0,0.2-0.1,0.3-0.2,0.4c-0.5,0.4-1.1,0.8-1.6,1.1c-0.1,0.1-0.2,0-0.2-0.1
		c0-0.6,0-1.3,0-1.9c0-0.1,0.1-0.2,0.2-0.3c0.4-0.3,0.8-0.6,1.2-0.9c0.1-0.1,0.2-0.1,0.3-0.2c0.2-0.1,0.3-0.1,0.3,0.2
		C23.7,9.5,23.7,9.8,23.7,10.1z"/>
	<path class="st0" d="M24.7,9.6c0-0.4,0-0.7,0-1.1c0-0.2,0.1-0.3,0.2-0.4c0.4-0.3,0.8-0.5,1.2-0.8c0.2-0.1,0.4-0.2,0.7-0.3
		c0.1,0,0.1,0,0.2,0c0.1,0,0.2,0,0.3,0.1c0,0.1-0.1,0.2-0.1,0.2c0,0,0,0,0,0.1c-0.4,0.4-0.6,0.9-0.5,1.5c0,0.2,0,0.3-0.2,0.4
		c-0.5,0.4-1.1,0.7-1.6,1.1c-0.1,0.1-0.2,0-0.2-0.1C24.6,10,24.7,9.8,24.7,9.6L24.7,9.6z"/>
	<path class="st0" d="M21.2,12c0,0.3,0,0.5,0,0.8c0,0.4-0.2,0.8-0.5,1c-0.3,0.3-0.7,0.5-1.1,0.8c0,0-0.1,0.1-0.2,0c0,0,0-0.1,0-0.1
		c0-0.7,0-1.3,0-2c0-0.1,0.1-0.3,0.2-0.3c0.4-0.4,0.9-0.9,1.3-1.3c0.1,0,0.1-0.1,0.2-0.1c0,0.1,0.1,0.1,0.1,0.2
		C21.2,11.4,21.2,11.7,21.2,12z"/>
	<path class="st0" d="M27.4,9.9c-0.2,0-0.5,0-0.7,0c-0.1,0-0.2,0-0.2-0.1c0,0,0-0.1,0.1-0.2c0.3-0.3,0.6-0.6,0.8-0.8
		c0.3-0.2,0.5-0.5,0.8-0.6C28.4,8,28.7,8,28.9,8c0.2,0,0.4-0.1,0.5-0.2c0.1-0.1,0.2-0.2,0.3-0.2c0.2,0,0.4,0.2,0.2,0.4
		c-0.2,0.2-0.3,0.5-0.5,0.7c-0.3,0.3-0.6,0.7-0.9,1c-0.1,0.1-0.2,0.2-0.4,0.2C27.9,9.9,27.6,9.9,27.4,9.9
		C27.4,9.9,27.4,9.9,27.4,9.9z"/>
</g>
</svg>
