<?xml version="1.0" encoding="utf-8"?>
<!-- Generator: Adobe Illustrator 21.0.2, SVG Export Plug-In . SVG Version: 6.00 Build 0)  -->
<svg version="1.1" id="Layer_1" xmlns="http://www.w3.org/2000/svg" xmlns:xlink="http://www.w3.org/1999/xlink" x="0px" y="0px"
	 viewBox="0 0 35 35" style="enable-background:new 0 0 35 35;" xml:space="preserve">
<style type="text/css">
	.st0{fill:#231F20;}
</style>
<g>
	<path class="st0" d="M17.5,7.5c3.5,0,6.9,0,10.4,0c1,0,2.1,0.8,2.1,2.1c0,5.2,0,10.5,0,15.7c0,1.3-0.8,2.1-2,2.2
		c-0.1,0-0.1,0-0.2,0c-6.8,0-13.7,0-20.5,0c-1.1,0-1.9-0.6-2.1-1.6C5,25.7,5,25.6,5,25.4c0-5.2,0-10.5,0-15.7c0-1.1,0.9-2.2,2.2-2.2
		C10.6,7.6,14.1,7.5,17.5,7.5z M17.6,17.5c-3.5,0-7,0-10.5,0c-0.4,0-0.5,0.1-0.5,0.5c0,2.4,0,4.8,0,7.2c0,0.6,0.1,0.7,0.7,0.7
		c6.8,0,13.6,0,20.4,0c0.6,0,0.7-0.1,0.7-0.7c0-2.4,0-4.8,0-7.1c0-0.4-0.1-0.5-0.5-0.5C24.4,17.5,21,17.5,17.6,17.5z M17.5,12.5
		c3.5,0,7,0,10.4,0c0.4,0,0.5-0.1,0.5-0.5c0-0.7,0-1.4,0-2c0-0.8-0.1-0.9-0.9-0.9c-3.4,0-6.8,0-10.2,0c-3.3,0-6.5,0-9.8,0
		c-0.8,0-0.9,0.1-0.9,0.9c0,0.7,0,1.3,0,2c0,0.6,0,0.6,0.5,0.6C10.6,12.5,14,12.5,17.5,12.5z"/>
	<path d="M13.4,22.5c0.8,0,1.6,0,2.3,0c0.8,0,1.5,0,2.3,0c0.3,0,0.4,0.1,0.4,0.4c0,0.3,0,0.6,0,0.9c0,0.3-0.1,0.4-0.4,0.4
		c-1.4,0-2.8,0-4.2,0c-0.2,0-0.4-0.1-0.3-0.3C13.4,23.4,13.4,23,13.4,22.5z"/>
	<path d="M11.6,22.5c0,0.5,0,1,0,1.4c0,0.1-0.2,0.2-0.3,0.2c-0.9,0-1.8,0-2.7,0c-0.2,0-0.3-0.1-0.3-0.3c0-0.3,0-0.7,0-1
		c0-0.2,0.1-0.3,0.3-0.3C9.6,22.5,10.6,22.5,11.6,22.5z"/>
</g>
</svg>
