<?xml version="1.0" encoding="utf-8"?>
<!-- Generator: Adobe Illustrator 21.0.2, SVG Export Plug-In . SVG Version: 6.00 Build 0)  -->
<svg version="1.1" id="Layer_1" xmlns="http://www.w3.org/2000/svg" xmlns:xlink="http://www.w3.org/1999/xlink" x="0px" y="0px"
	 viewBox="0 0 35 35" style="enable-background:new 0 0 35 35;" xml:space="preserve">
<g>
	<path d="M12.5,17.4c0-1.5,0.4-2.9,1.3-4.3c1.7-2.7,5.2-2.9,7.1-0.3c2.1,2.8,2.1,6.5,0,9.3c-1.9,2.6-5.5,2.4-7.2-0.4
		C13,20.5,12.5,19,12.5,17.4z M16.5,15.7c0,1.4,0,2.7,0,4c0,0.1-0.2,0.3-0.3,0.3c-0.4,0-0.8,0-1.2,0c-0.1,0-0.4,0.2-0.4,0.3
		c0,0.4-0.2,0.9,0.2,1.2c0,0,0.1,0,0.1,0c1.8,0,3.6,0,5.4,0c0.1,0,0.3-0.1,0.3-0.2c0.3-1,0-1.3-1-1.3c-0.1,0-0.3,0-0.4,0
		c-0.5,0.1-0.6-0.1-0.6-0.6c0-2,0-3.9,0-5.9c0-0.2-0.1-0.5-0.1-0.5c-0.6,0-1.3-0.2-1.8,0.1c-0.8,0.5-1.5,1.3-2.3,2
		c0.2,0.2,0.3,0.3,0.4,0.5C15.6,16.4,15.6,16.4,16.5,15.7z"/>
	<path d="M31.2,7.5c-9.1,0-18.3,0-27.4,0c-0.9,0-1.3,0.4-1.3,1.3c0,5.8,0,11.6,0,17.4c0,1,0.3,1.3,1.3,1.3c4.6,0,9.1,0,13.7,0
		s9.1,0,13.7,0c1,0,1.3-0.3,1.3-1.3c0-5.8,0-11.6,0-17.4C32.5,7.8,32.1,7.5,31.2,7.5z M30,21.6c-2,0.3-3.2,1.6-3.4,3.6
		c0,0.3-0.1,0.4-0.4,0.4c-0.1,0-0.2,0-0.3,0c-5.6,0-11.1,0-16.7,0c-0.5,0-0.7-0.1-0.8-0.6c-0.1-1.6-1.6-3.2-3.4-3.3
		c-0.5,0-0.6-0.3-0.6-0.7c0-2.3,0-4.6,0-6.9c0-0.4,0.1-0.5,0.5-0.6c2-0.3,3.2-1.5,3.5-3.5C8.5,9.6,8.6,9.4,9,9.4c0.7,0,1.4,0,2.1,0
		c2.1,0,4.3,0,6.4,0c2.1,0,4.2,0,6.3,0c0.7,0,1.4,0,2.1,0c0.4,0,0.6,0.1,0.6,0.5c0.1,1.7,1.6,3.2,3.5,3.4c0.4,0.1,0.5,0.2,0.5,0.6
		c0,2.3,0,4.6,0,6.9C30.6,21.4,30.4,21.5,30,21.6z"/>
</g>
</svg>
