<?xml version="1.0" encoding="utf-8"?>
<!-- Generator: Adobe Illustrator 21.0.2, SVG Export Plug-In . SVG Version: 6.00 Build 0)  -->
<svg version="1.1" id="Layer_1" xmlns="http://www.w3.org/2000/svg" xmlns:xlink="http://www.w3.org/1999/xlink" x="0px" y="0px"
	 viewBox="0 0 179 55" style="enable-background:new 0 0 179 55;" xml:space="preserve">
<style type="text/css">
	.st0{fill:#A5A4A5;}
	.st1{fill:#FFFFFF;stroke:#FFFFFF;stroke-width:0.2;stroke-miterlimit:10;}
	.st2{fill:#FFFFFF;}
	.st3{fill:url(#XMLID_3_);}
	.st4{fill:url(#XMLID_4_);}
	.st5{fill:url(#XMLID_5_);}
	.st6{fill:url(#XMLID_6_);}
	.st7{opacity:0.2;enable-background:new    ;}
	.st8{opacity:0.12;enable-background:new    ;}
	.st9{opacity:0.25;fill:#FFFFFF;enable-background:new    ;}
</style>
<g id="Play_Store_1_">
	<g id="XMLID_14131_">
		<path d="M170.3,53.4H8.7c-3.6,0-6.5-2.9-6.5-6.5V8.1c0-3.6,2.9-6.5,6.5-6.5h161.6c3.6,0,6.5,2.9,6.5,6.5v38.8
			C176.8,50.4,173.9,53.4,170.3,53.4z"/>
	</g>
	<g id="XMLID_14126_">
		<g id="XMLID_14127_">
			<path id="XMLID_14128_" class="st0" d="M170.3,2.7c3,0,5.4,2.4,5.4,5.4v38.8c0,3-2.4,5.4-5.4,5.4H8.7c-3,0-5.4-2.4-5.4-5.4V8.1
				c0-3,2.4-5.4,5.4-5.4H170.3 M170.3,1.6H8.7c-3.6,0-6.5,2.9-6.5,6.5v38.8c0,3.6,2.9,6.5,6.5,6.5h161.6c3.6,0,6.5-2.9,6.5-6.5V8.1
				C176.8,4.6,173.9,1.6,170.3,1.6L170.3,1.6z"/>
		</g>
	</g>
	<g id="XMLID_14110_">
		<path id="XMLID_14124_" class="st1" d="M63.5,14.9c0,1.1-0.3,1.9-1,2.6c-0.7,0.8-1.7,1.1-2.8,1.1c-1.1,0-2.1-0.4-2.9-1.2
			c-0.8-0.8-1.2-1.7-1.2-2.9c0-1.1,0.4-2.1,1.2-2.9c0.8-0.8,1.7-1.2,2.9-1.2c0.6,0,1.1,0.1,1.6,0.3c0.5,0.2,0.9,0.5,1.2,0.9
			l-0.7,0.7c-0.5-0.6-1.2-0.9-2.1-0.9c-0.8,0-1.5,0.3-2.1,0.9c-0.6,0.6-0.9,1.3-0.9,2.2s0.3,1.7,0.9,2.2c0.6,0.6,1.3,0.9,2.1,0.9
			c0.9,0,1.6-0.3,2.2-0.9c0.4-0.4,0.6-0.9,0.7-1.6h-2.8v-0.9h3.8C63.5,14.5,63.5,14.7,63.5,14.9z"/>
		<path id="XMLID_14122_" class="st1" d="M69.5,11.6H66v2.5h3.2V15H66v2.5h3.5v1H65v-7.8h4.5V11.6z"/>
		<path id="XMLID_14120_" class="st1" d="M73.7,18.5h-1v-6.8h-2.2v-1h5.3v1h-2.2V18.5z"/>
		<path id="XMLID_14118_" class="st1" d="M79.7,18.5v-7.8h1v7.8H79.7z"/>
		<path id="XMLID_14116_" class="st1" d="M85.1,18.5h-1v-6.8H82v-1h5.3v1h-2.2V18.5z"/>
		<path id="XMLID_14113_" class="st1" d="M97.4,17.4c-0.8,0.8-1.7,1.2-2.8,1.2c-1.1,0-2.1-0.4-2.8-1.2c-0.8-0.8-1.1-1.7-1.1-2.9
			s0.4-2.1,1.1-2.9c0.8-0.8,1.7-1.2,2.8-1.2c1.1,0,2.1,0.4,2.8,1.2c0.8,0.8,1.1,1.7,1.1,2.9C98.5,15.7,98.2,16.7,97.4,17.4z
			 M92.4,16.8c0.6,0.6,1.3,0.9,2.1,0.9s1.5-0.3,2.1-0.9c0.6-0.6,0.9-1.3,0.9-2.2s-0.3-1.6-0.9-2.2c-0.6-0.6-1.3-0.9-2.1-0.9
			s-1.5,0.3-2.1,0.9c-0.6,0.6-0.9,1.3-0.9,2.2S91.9,16.2,92.4,16.8z"/>
		<path id="XMLID_14111_" class="st1" d="M99.9,18.5v-7.8h1.2l3.8,6h0l0-1.5v-4.5h1v7.8h-1l-3.9-6.3h0l0,1.5v4.8H99.9z"/>
	</g>
	<path id="XMLID_14087_" class="st2" d="M90.3,29.8c-3,0-5.5,2.3-5.5,5.5c0,3.2,2.5,5.5,5.5,5.5c3,0,5.5-2.3,5.5-5.5
		C95.8,32.1,93.4,29.8,90.3,29.8z M90.3,38.6c-1.7,0-3.1-1.4-3.1-3.3c0-2,1.4-3.3,3.1-3.3c1.7,0,3.1,1.4,3.1,3.3
		C93.4,37.2,92,38.6,90.3,38.6z M78.3,29.8c-3,0-5.5,2.3-5.5,5.5c0,3.2,2.5,5.5,5.5,5.5c3,0,5.5-2.3,5.5-5.5
		C83.8,32.1,81.3,29.8,78.3,29.8z M78.3,38.6c-1.7,0-3.1-1.4-3.1-3.3c0-2,1.4-3.3,3.1-3.3c1.7,0,3.1,1.4,3.1,3.3
		C81.4,37.2,79.9,38.6,78.3,38.6z M64,31.5v2.3h5.6c-0.2,1.3-0.6,2.3-1.3,2.9c-0.8,0.8-2.1,1.7-4.3,1.7c-3.4,0-6.1-2.8-6.1-6.2
		S60.5,26,64,26c1.9,0,3.2,0.7,4.2,1.7l1.6-1.6c-1.4-1.3-3.2-2.4-5.9-2.4c-4.7,0-8.7,3.8-8.7,8.5c0,4.7,4,8.5,8.7,8.5
		c2.5,0,4.5-0.8,6-2.4c1.5-1.5,2-3.7,2-5.5c0-0.5,0-1-0.1-1.5H64z M122.5,33.3c-0.5-1.2-1.9-3.5-4.7-3.5c-2.8,0-5.2,2.2-5.2,5.5
		c0,3.1,2.3,5.5,5.5,5.5c2.5,0,4-1.5,4.6-2.4l-1.9-1.2c-0.6,0.9-1.5,1.5-2.7,1.5c-1.2,0-2.1-0.6-2.7-1.7l7.4-3L122.5,33.3z
		 M115,35.1c-0.1-2.1,1.6-3.2,2.9-3.2c1,0,1.8,0.5,2,1.2L115,35.1z M109.1,40.4h2.4V24.3h-2.4V40.4z M105.1,31L105.1,31
		c-0.6-0.6-1.7-1.2-3-1.2c-2.7,0-5.3,2.4-5.3,5.5c0,3.1,2.5,5.5,5.3,5.5c1.3,0,2.4-0.6,2.9-1.2h0.1v0.8c0,2.1-1.1,3.2-2.9,3.2
		c-1.5,0-2.4-1.1-2.8-2l-2.1,0.9c0.6,1.5,2.2,3.2,4.9,3.2c2.8,0,5.2-1.7,5.2-5.7v-9.9h-2.3V31z M102.3,38.6c-1.7,0-3.1-1.4-3.1-3.3
		c0-1.9,1.4-3.4,3.1-3.4c1.6,0,2.9,1.4,2.9,3.4C105.3,37.2,104,38.6,102.3,38.6z M133.8,24.3h-5.8v16.2h2.4v-6.1h3.4
		c2.7,0,5.3-1.9,5.3-5S136.5,24.3,133.8,24.3z M133.9,32.1h-3.4v-5.5h3.4c1.8,0,2.8,1.5,2.8,2.8C136.7,30.5,135.7,32.1,133.9,32.1z
		 M148.8,29.7c-1.7,0-3.6,0.8-4.3,2.5l2.1,0.9c0.5-0.9,1.3-1.2,2.2-1.2c1.2,0,2.5,0.7,2.5,2.1v0.2c-0.4-0.2-1.4-0.6-2.5-0.6
		c-2.3,0-4.7,1.3-4.7,3.6c0,2.2,1.9,3.6,4,3.6c1.6,0,2.5-0.7,3.1-1.6h0.1v1.2h2.3v-6.2C153.7,31.3,151.6,29.7,148.8,29.7z
		 M148.5,38.6c-0.8,0-1.9-0.4-1.9-1.4c0-1.2,1.4-1.7,2.6-1.7c1.1,0,1.6,0.2,2.2,0.5C151.2,37.5,149.9,38.6,148.5,38.6z M162.2,30.1
		l-2.8,7h-0.1l-2.9-7h-2.6l4.3,9.8l-2.5,5.4h2.5l6.6-15.2H162.2z M140.5,40.4h2.4V24.3h-2.4V40.4z"/>
	<g id="XMLID_14077_">
		
			<linearGradient id="XMLID_3_" gradientUnits="userSpaceOnUse" x1="30.4201" y1="41.0957" x2="8.7244" y2="19.4" gradientTransform="matrix(1 0 0 -1 0 54)">
			<stop  offset="0" style="stop-color:#4595D1"/>
			<stop  offset="6.574450e-03" style="stop-color:#4496D2"/>
			<stop  offset="0.2601" style="stop-color:#3DB7EA"/>
			<stop  offset="0.5122" style="stop-color:#48C0EC"/>
			<stop  offset="0.7604" style="stop-color:#5BC3E5"/>
			<stop  offset="1" style="stop-color:#5FC3E4"/>
		</linearGradient>
		<path id="XMLID_14086_" class="st3" d="M15.7,11.4c-0.4,0.4-0.6,1-0.6,1.8v28.6c0,0.8,0.2,1.4,0.6,1.8l0.1,0.1l16-16v-0.2v-0.2
			L15.7,11.4L15.7,11.4z"/>
		
			<linearGradient id="XMLID_4_" gradientUnits="userSpaceOnUse" x1="45.9781" y1="26.4981" x2="14.6971" y2="26.4981" gradientTransform="matrix(1 0 0 -1 0 54)">
			<stop  offset="0" style="stop-color:#FFDF00"/>
			<stop  offset="0.4087" style="stop-color:#FABB0C"/>
			<stop  offset="0.7754" style="stop-color:#F5A216"/>
			<stop  offset="1" style="stop-color:#F49919"/>
		</linearGradient>
		<path id="XMLID_14085_" class="st4" d="M37.2,33l-5.3-5.3v-0.2v-0.2l5.3-5.3l0.1,0.1l6.3,3.6c1.8,1,1.8,2.7,0,3.7L37.3,33L37.2,33
			z"/>
		
			<linearGradient id="XMLID_5_" gradientUnits="userSpaceOnUse" x1="34.3336" y1="23.5317" x2="4.9124" y2="-5.8895" gradientTransform="matrix(1 0 0 -1 0 54)">
			<stop  offset="0" style="stop-color:#E73F49"/>
			<stop  offset="1" style="stop-color:#C20F62"/>
		</linearGradient>
		<path id="XMLID_14084_" class="st5" d="M37.3,33l-5.5-5.5L15.7,43.6c0.6,0.6,1.6,0.7,2.7,0.1L37.3,33"/>
		
			<linearGradient id="XMLID_6_" gradientUnits="userSpaceOnUse" x1="11.6719" y1="52.1276" x2="24.8096" y2="38.9898" gradientTransform="matrix(1 0 0 -1 0 54)">
			<stop  offset="0" style="stop-color:#319F71"/>
			<stop  offset="6.850000e-02" style="stop-color:#2EA671"/>
			<stop  offset="0.4762" style="stop-color:#4EB16F"/>
			<stop  offset="0.8009" style="stop-color:#5EB468"/>
			<stop  offset="1" style="stop-color:#63B563"/>
		</linearGradient>
		<path id="XMLID_14083_" class="st6" d="M37.3,22L18.4,11.3c-1.1-0.6-2.1-0.6-2.7,0.1l16.1,16.1L37.3,22z"/>
		<g id="XMLID_14080_">
			<path id="XMLID_14082_" class="st7" d="M37.2,32.8L18.4,43.5c-1,0.6-2,0.6-2.6,0l0,0l-0.1,0.1l0,0l0.1,0.1l0,0
				c0.6,0.5,1.5,0.6,2.6,0L37.3,33L37.2,32.8z"/>
			<path id="XMLID_14081_" class="st8" d="M15.7,43.4c-0.4-0.4-0.6-1-0.6-1.8v0.2c0,0.8,0.2,1.4,0.6,1.8V43.4L15.7,43.4z"/>
		</g>
		<path id="XMLID_14079_" class="st8" d="M43.6,29.2l-6.4,3.7l0.1,0.1l6.3-3.6c0.9-0.5,1.4-1.2,1.4-1.9l0,0
			C44.9,28.1,44.4,28.7,43.6,29.2z"/>
		<path id="XMLID_14078_" class="st9" d="M18.4,11.5l25.2,14.3c0.8,0.5,1.3,1.1,1.4,1.7l0,0c0-0.7-0.5-1.4-1.4-1.9L18.4,11.3
			c-1.8-1-3.3-0.2-3.3,1.9v0.2C15.1,11.3,16.6,10.5,18.4,11.5z"/>
	</g>
</g>
</svg>
