<?xml version="1.0" encoding="utf-8"?>
<!-- Generator: Adobe Illustrator 21.0.2, SVG Export Plug-In . SVG Version: 6.00 Build 0)  -->
<svg version="1.1" id="Layer_1" xmlns="http://www.w3.org/2000/svg" xmlns:xlink="http://www.w3.org/1999/xlink" x="0px" y="0px"
	 viewBox="0 0 179 55" style="enable-background:new 0 0 179 55;" xml:space="preserve">
<style type="text/css">
	.st0{fill:#A5A4A5;}
	.st1{fill:#FFFFFF;}
</style>
<g id="App_Store_1_">
	<path id="XMLID_14076_" class="st0" d="M171.5,53.6H7.4c-3.4,0-6.2-2.8-6.2-6.2V7.5c0-3.4,2.8-6.2,6.2-6.2h164
		c3.4,0,6.3,2.8,6.3,6.2v39.9C177.7,50.9,174.9,53.6,171.5,53.6L171.5,53.6z"/>
	<path id="XMLID_14075_" d="M176.5,47.5c0,2.8-2.2,5-5,5H7.4c-2.8,0-5-2.2-5-5V7.5c0-2.8,2.2-5,5-5h164c2.8,0,5,2.2,5,5L176.5,47.5
		L176.5,47.5z"/>
	<g id="XMLID_14071_">
		<g id="XMLID_14072_">
			<path id="XMLID_14074_" class="st1" d="M40.6,27.2c0-4.2,3.4-6.3,3.6-6.4c-2-2.9-5-3.3-6.1-3.3c-2.6-0.3-5.1,1.5-6.4,1.5
				c-1.3,0-3.4-1.5-5.5-1.5c-2.8,0-5.4,1.7-6.8,4.2c-3,5.1-0.8,12.7,2.1,16.8c1.4,2,3.1,4.3,5.2,4.2c2.1-0.1,2.9-1.4,5.5-1.4
				c2.5,0,3.3,1.4,5.5,1.3c2.3,0,3.7-2,5.1-4.1c1.6-2.3,2.3-4.6,2.3-4.7C45.1,33.9,40.7,32.3,40.6,27.2z"/>
			<path id="XMLID_14073_" class="st1" d="M36.5,14.8c1.1-1.4,1.9-3.4,1.7-5.3c-1.7,0.1-3.7,1.1-4.9,2.5c-1.1,1.2-2,3.2-1.8,5.1
				C33.4,17.3,35.3,16.2,36.5,14.8z"/>
		</g>
	</g>
	<g id="XMLID_14052_">
		<path id="XMLID_14068_" class="st1" d="M71.4,42.5h-3l-1.6-5.1h-5.7l-1.5,5.1h-2.9l5.6-17.4h3.5L71.4,42.5z M66.3,35.3l-1.5-4.5
			c-0.2-0.5-0.4-1.6-0.9-3.3h-0.1c-0.2,0.7-0.4,1.8-0.8,3.3l-1.4,4.5H66.3z"/>
		<path id="XMLID_14065_" class="st1" d="M85.8,36.1c0,2.1-0.6,3.8-1.7,5.1c-1,1.1-2.3,1.7-3.8,1.7c-1.7,0-2.8-0.6-3.6-1.8h-0.1v6.6
			h-2.8V34.1c0-1.3,0-2.7-0.1-4.1h2.5l0.2,2h0.1c0.9-1.5,2.3-2.2,4.2-2.2c1.5,0,2.7,0.6,3.7,1.8C85.3,32.7,85.8,34.2,85.8,36.1z
			 M83,36.2c0-1.2-0.3-2.2-0.8-3c-0.6-0.8-1.4-1.2-2.4-1.2c-0.7,0-1.3,0.2-1.9,0.7c-0.6,0.5-0.9,1.1-1.1,1.8
			c-0.1,0.3-0.1,0.6-0.1,0.8v2.1c0,0.9,0.3,1.7,0.8,2.3c0.6,0.6,1.3,0.9,2.2,0.9c1,0,1.9-0.4,2.5-1.2C82.7,38.6,83,37.5,83,36.2z"/>
		<path id="XMLID_14062_" class="st1" d="M100.2,36.1c0,2.1-0.6,3.8-1.7,5.1c-1,1.1-2.3,1.7-3.8,1.7c-1.7,0-2.8-0.6-3.6-1.8H91v6.6
			h-2.8V34.1c0-1.3,0-2.7-0.1-4.1h2.5l0.2,2h0.1c0.9-1.5,2.3-2.2,4.2-2.2c1.5,0,2.7,0.6,3.7,1.8C99.7,32.7,100.2,34.2,100.2,36.1z
			 M97.4,36.2c0-1.2-0.3-2.2-0.8-3c-0.6-0.8-1.4-1.2-2.4-1.2c-0.7,0-1.3,0.2-1.9,0.7c-0.6,0.5-0.9,1.1-1.1,1.8
			c-0.1,0.3-0.1,0.6-0.1,0.8v2.1c0,0.9,0.3,1.7,0.8,2.3c0.6,0.6,1.3,0.9,2.2,0.9c1,0,1.9-0.4,2.5-1.2C97.1,38.6,97.4,37.5,97.4,36.2
			z"/>
		<path id="XMLID_14061_" class="st1" d="M116.3,37.7c0,1.5-0.5,2.7-1.5,3.6c-1.1,1-2.7,1.5-4.7,1.5c-1.9,0-3.4-0.4-4.5-1.1l0.6-2.3
			c1.2,0.7,2.6,1.1,4,1.1c1,0,1.9-0.2,2.5-0.7c0.6-0.5,0.9-1.1,0.9-1.9c0-0.7-0.2-1.3-0.7-1.8c-0.5-0.5-1.3-0.9-2.4-1.3
			c-3-1.1-4.6-2.8-4.6-5c0-1.4,0.5-2.6,1.6-3.5c1.1-0.9,2.5-1.4,4.3-1.4c1.6,0,2.9,0.3,3.9,0.8L115,28c-1-0.5-2.1-0.8-3.3-0.8
			c-1,0-1.7,0.2-2.3,0.7c-0.5,0.4-0.7,1-0.7,1.6c0,0.7,0.3,1.3,0.8,1.7c0.5,0.4,1.3,0.9,2.5,1.3c1.5,0.6,2.6,1.3,3.3,2.1
			C116,35.4,116.3,36.5,116.3,37.7z"/>
		<path id="XMLID_14060_" class="st1" d="M125.6,32.1h-3.1v6.1c0,1.5,0.5,2.3,1.6,2.3c0.5,0,0.9,0,1.2-0.1l0.1,2.1
			c-0.5,0.2-1.3,0.3-2.2,0.3c-1.1,0-2-0.3-2.6-1c-0.6-0.7-0.9-1.8-0.9-3.4v-6.3h-1.8V30h1.8v-2.3l2.7-0.8V30h3.1L125.6,32.1z"/>
		<path id="XMLID_14057_" class="st1" d="M139.4,36.2c0,1.9-0.6,3.5-1.7,4.7c-1.2,1.3-2.7,1.9-4.6,1.9c-1.8,0-3.3-0.6-4.4-1.8
			c-1.1-1.2-1.6-2.8-1.6-4.6c0-1.9,0.6-3.5,1.7-4.8c1.1-1.2,2.6-1.9,4.6-1.9c1.8,0,3.3,0.6,4.4,1.8
			C138.9,32.8,139.4,34.3,139.4,36.2z M136.5,36.3c0-1.2-0.2-2.1-0.7-3c-0.6-1-1.4-1.5-2.5-1.5c-1.1,0-2,0.5-2.6,1.5
			c-0.5,0.8-0.7,1.8-0.7,3c0,1.2,0.2,2.1,0.7,3c0.6,1,1.4,1.5,2.5,1.5c1.1,0,1.9-0.5,2.5-1.5C136.3,38.4,136.5,37.4,136.5,36.3z"/>
		<path id="XMLID_14056_" class="st1" d="M148.5,32.4c-0.3-0.1-0.6-0.1-0.9-0.1c-1,0-1.7,0.4-2.3,1.1c-0.5,0.7-0.7,1.5-0.7,2.5v6.6
			h-2.8l0-8.6c0-1.4,0-2.8-0.1-3.9h2.4l0.1,2.4h0.1c0.3-0.8,0.8-1.5,1.4-2c0.6-0.4,1.3-0.7,2-0.7c0.3,0,0.5,0,0.7,0.1V32.4z"/>
		<path id="XMLID_14053_" class="st1" d="M160.9,35.7c0,0.5,0,0.9-0.1,1.3h-8.4c0,1.2,0.4,2.2,1.2,2.8c0.7,0.6,1.6,0.9,2.7,0.9
			c1.2,0,2.4-0.2,3.4-0.6l0.4,1.9c-1.2,0.5-2.6,0.8-4.2,0.8c-1.9,0-3.5-0.6-4.6-1.7c-1.1-1.1-1.7-2.7-1.7-4.6c0-1.9,0.5-3.5,1.6-4.7
			c1.1-1.3,2.5-2,4.4-2c1.8,0,3.2,0.7,4.1,2C160.6,32.8,160.9,34.1,160.9,35.7z M158.3,34.9c0-0.8-0.2-1.5-0.5-2.1
			c-0.5-0.8-1.2-1.2-2.2-1.2c-0.9,0-1.7,0.4-2.2,1.1c-0.5,0.6-0.7,1.3-0.8,2.2L158.3,34.9L158.3,34.9z"/>
	</g>
	<g id="XMLID_14023_">
		<g id="XMLID_14024_">
			<path id="XMLID_14049_" class="st1" d="M65.4,14.4c0,1.5-0.5,2.7-1.4,3.5c-0.9,0.7-2.1,1.1-3.6,1.1c-0.8,0-1.4,0-2-0.1v-8.4
				c0.7-0.1,1.5-0.2,2.4-0.2c1.5,0,2.6,0.3,3.4,1C65,12,65.4,13.1,65.4,14.4z M63.9,14.5c0-1-0.3-1.8-0.8-2.3
				c-0.5-0.5-1.3-0.8-2.3-0.8c-0.4,0-0.8,0-1.1,0.1v6.4c0.2,0,0.5,0,0.9,0c1,0,1.9-0.3,2.4-0.9C63.7,16.4,63.9,15.6,63.9,14.5z"/>
			<path id="XMLID_14046_" class="st1" d="M73,15.8c0,0.9-0.3,1.7-0.8,2.3c-0.6,0.6-1.3,0.9-2.3,0.9c-0.9,0-1.6-0.3-2.2-0.9
				c-0.5-0.6-0.8-1.4-0.8-2.3c0-1,0.3-1.7,0.8-2.3c0.6-0.6,1.3-0.9,2.2-0.9c0.9,0,1.6,0.3,2.2,0.9C72.8,14.1,73,14.9,73,15.8z
				 M71.6,15.8c0-0.6-0.1-1.1-0.4-1.5c-0.3-0.5-0.7-0.7-1.2-0.7c-0.6,0-1,0.2-1.3,0.7c-0.2,0.4-0.4,0.9-0.4,1.5
				c0,0.6,0.1,1.1,0.4,1.5c0.3,0.5,0.7,0.7,1.2,0.7c0.5,0,0.9-0.2,1.2-0.8C71.5,16.9,71.6,16.4,71.6,15.8z"/>
			<path id="XMLID_14045_" class="st1" d="M83.3,12.8l-1.9,6.2h-1.3l-0.8-2.7c-0.2-0.7-0.4-1.3-0.5-2h0c-0.1,0.7-0.3,1.3-0.5,2
				l-0.8,2.7h-1.3l-1.8-6.2h1.4l0.7,2.9c0.2,0.7,0.3,1.4,0.4,2h0c0.1-0.5,0.3-1.2,0.5-2l0.9-2.9h1.1l0.8,2.9c0.2,0.7,0.4,1.4,0.5,2
				h0c0.1-0.6,0.2-1.3,0.4-2l0.7-2.9L83.3,12.8L83.3,12.8z"/>
			<path id="XMLID_14044_" class="st1" d="M90.4,18.9H89v-3.5c0-1.1-0.4-1.6-1.2-1.6c-0.4,0-0.7,0.1-1,0.4c-0.3,0.3-0.4,0.7-0.4,1.1
				v3.7h-1.4v-4.4c0-0.5,0-1.1,0-1.8h1.2l0.1,1h0c0.2-0.3,0.4-0.5,0.7-0.7c0.4-0.2,0.8-0.3,1.2-0.3c0.6,0,1.1,0.2,1.4,0.6
				c0.5,0.5,0.7,1.1,0.7,2V18.9z"/>
			<path id="XMLID_14043_" class="st1" d="M94.2,18.9h-1.4v-9h1.4V18.9z"/>
			<path id="XMLID_14040_" class="st1" d="M102.3,15.8c0,0.9-0.3,1.7-0.8,2.3c-0.6,0.6-1.3,0.9-2.3,0.9c-0.9,0-1.6-0.3-2.2-0.9
				c-0.5-0.6-0.8-1.4-0.8-2.3c0-1,0.3-1.7,0.8-2.3s1.3-0.9,2.2-0.9c0.9,0,1.6,0.3,2.2,0.9C102,14.1,102.3,14.9,102.3,15.8z
				 M100.8,15.8c0-0.6-0.1-1.1-0.4-1.5c-0.3-0.5-0.7-0.7-1.2-0.7c-0.6,0-1,0.2-1.3,0.7c-0.2,0.4-0.4,0.9-0.4,1.5
				c0,0.6,0.1,1.1,0.4,1.5c0.3,0.5,0.7,0.7,1.2,0.7c0.5,0,0.9-0.2,1.2-0.8C100.7,16.9,100.8,16.4,100.8,15.8z"/>
			<path id="XMLID_14037_" class="st1" d="M108.9,18.9h-1.2l-0.1-0.7h0c-0.4,0.6-1,0.8-1.8,0.8c-0.6,0-1.1-0.2-1.4-0.6
				c-0.3-0.3-0.5-0.8-0.5-1.3c0-0.8,0.3-1.3,0.9-1.7c0.6-0.4,1.5-0.6,2.7-0.6v-0.1c0-0.8-0.4-1.2-1.3-1.2c-0.6,0-1.1,0.2-1.6,0.5
				l-0.3-0.9c0.6-0.4,1.3-0.5,2.1-0.5c1.6,0,2.4,0.8,2.4,2.5v2.3C108.8,18.1,108.8,18.6,108.9,18.9z M107.5,16.8v-1
				c-1.5,0-2.3,0.4-2.3,1.2c0,0.3,0.1,0.6,0.3,0.7c0.2,0.2,0.4,0.2,0.7,0.2c0.3,0,0.6-0.1,0.8-0.3c0.3-0.2,0.4-0.4,0.5-0.7
				C107.5,17,107.5,16.9,107.5,16.8z"/>
			<path id="XMLID_14034_" class="st1" d="M116.7,18.9h-1.2l-0.1-1h0c-0.4,0.8-1,1.1-2,1.1c-0.7,0-1.4-0.3-1.9-0.9
				c-0.5-0.6-0.7-1.3-0.7-2.3c0-1,0.3-1.8,0.8-2.4c0.5-0.6,1.1-0.9,1.9-0.9c0.8,0,1.4,0.3,1.7,0.8h0V9.9h1.4v7.3
				C116.6,17.9,116.6,18.4,116.7,18.9z M115.3,16.3v-1c0-0.2,0-0.3,0-0.4c-0.1-0.3-0.2-0.6-0.5-0.8c-0.3-0.2-0.6-0.3-0.9-0.3
				c-0.5,0-0.9,0.2-1.2,0.6c-0.3,0.4-0.4,0.9-0.4,1.6c0,0.6,0.1,1.1,0.4,1.5c0.3,0.4,0.7,0.6,1.2,0.6c0.4,0,0.8-0.2,1.1-0.5
				C115.1,17.1,115.3,16.8,115.3,16.3z"/>
			<path id="XMLID_14031_" class="st1" d="M128.4,15.8c0,0.9-0.3,1.7-0.8,2.3c-0.6,0.6-1.3,0.9-2.3,0.9c-0.9,0-1.6-0.3-2.2-0.9
				c-0.5-0.6-0.8-1.4-0.8-2.3c0-1,0.3-1.7,0.8-2.3s1.3-0.9,2.2-0.9c0.9,0,1.6,0.3,2.2,0.9C128.1,14.1,128.4,14.9,128.4,15.8z
				 M127,15.8c0-0.6-0.1-1.1-0.4-1.5c-0.3-0.5-0.7-0.7-1.2-0.7c-0.5,0-1,0.2-1.3,0.7c-0.2,0.4-0.4,0.9-0.4,1.5
				c0,0.6,0.1,1.1,0.4,1.5c0.3,0.5,0.7,0.7,1.2,0.7c0.5,0,0.9-0.2,1.2-0.8C126.8,16.9,127,16.4,127,15.8z"/>
			<path id="XMLID_14030_" class="st1" d="M135.8,18.9h-1.4v-3.5c0-1.1-0.4-1.6-1.2-1.6c-0.4,0-0.7,0.1-1,0.4s-0.4,0.7-0.4,1.1v3.7
				h-1.4v-4.4c0-0.5,0-1.1,0-1.8h1.2l0.1,1h0c0.2-0.3,0.4-0.5,0.7-0.7c0.4-0.2,0.8-0.3,1.2-0.3c0.6,0,1.1,0.2,1.4,0.6
				c0.5,0.5,0.7,1.1,0.7,2V18.9z"/>
			<path id="XMLID_14029_" class="st1" d="M145,13.8h-1.5v3c0,0.8,0.3,1.1,0.8,1.1c0.2,0,0.4,0,0.6-0.1l0,1
				c-0.3,0.1-0.6,0.2-1.1,0.2c-0.5,0-1-0.2-1.3-0.5c-0.3-0.3-0.5-0.9-0.5-1.7v-3.1h-0.9v-1h0.9v-1.1l1.3-0.4v1.5h1.5L145,13.8
				L145,13.8z"/>
			<path id="XMLID_14028_" class="st1" d="M152.2,18.9h-1.4v-3.5c0-1.1-0.4-1.7-1.2-1.7c-0.6,0-1.1,0.3-1.3,1c0,0.1-0.1,0.3-0.1,0.5
				v3.7h-1.4v-9h1.4v3.7h0c0.4-0.7,1-1,1.9-1c0.6,0,1,0.2,1.4,0.6c0.5,0.5,0.7,1.2,0.7,2.1V18.9z"/>
			<path id="XMLID_14025_" class="st1" d="M159.7,15.5c0,0.2,0,0.5-0.1,0.6h-4.1c0,0.6,0.2,1.1,0.6,1.4c0.3,0.3,0.8,0.4,1.3,0.4
				c0.6,0,1.2-0.1,1.7-0.3l0.2,1c-0.6,0.3-1.3,0.4-2.1,0.4c-1,0-1.7-0.3-2.2-0.8c-0.5-0.6-0.8-1.3-0.8-2.3c0-0.9,0.3-1.7,0.8-2.3
				c0.5-0.7,1.2-1,2.2-1c0.9,0,1.6,0.3,2,1C159.5,14.1,159.7,14.8,159.7,15.5z M158.4,15.2c0-0.4-0.1-0.8-0.3-1.1
				c-0.2-0.4-0.6-0.6-1.1-0.6c-0.4,0-0.8,0.2-1.1,0.6c-0.2,0.3-0.4,0.7-0.4,1.1L158.4,15.2z"/>
		</g>
	</g>
</g>
</svg>
