<?xml version="1.0" encoding="utf-8"?>
<!-- Generator: Adobe Illustrator 21.0.2, SVG Export Plug-In . SVG Version: 6.00 Build 0)  -->
<svg version="1.1" id="Layer_1" xmlns="http://www.w3.org/2000/svg" xmlns:xlink="http://www.w3.org/1999/xlink" x="0px" y="0px"
	 viewBox="0 0 585 203" style="enable-background:new 0 0 585 203;" xml:space="preserve">
<style type="text/css">
	.st0{fill:#1D1D1B;stroke:#1D1D1B;stroke-miterlimit:10;}
	.st1{fill:#FFFFFF;}
	.st2{fill:#1D1D1B;}
	.st3{clip-path:url(#XMLID_2_);fill:#FFFFFF;}
</style>
<g id="XMLID_13978_">
	<path id="XMLID_14022_" class="st0" d="M43.8,62.1c0,0,2.7,81.7,15.9,82.1c38.3,1.2-6.3-4.4,26.7-8.4
		c72.5-8.6,153.8-22.2,214.9-13.4c61.8,8.9,134.9-8.9,189.9,8.9c55,17.9,67.5,31.3,72.5,4.5s12.5-80.5,12.5-80.5s-40,4.5-92.4,4.5
		c-52.5,0-67.5-8.9-99.9-13.4s-75.6-3.9-109.9,0c-34.9,4-61.7-2.4-120.2-0.6c-63.1,1.9-35.5,0.5-63,5S43.8,62.1,43.8,62.1z"/>
	<g id="XMLID_13989_">
		<path id="XMLID_14018_" class="st1" d="M169.3,89.1c0.1,0.5,0.2,1-0.3,1.4c-0.5,0.4-1.1,0.2-1.6-0.1c-1.2-0.9-2.3-1.8-2.5-3.4
			c-0.9-1.5-0.5-2.9,0.1-4.4c1.4-3.8,3.5-7.1,6.3-10c3-3.2,6.3-6,10.2-8.1c1.1-0.6,1.9-1.4,2.3-2.6c0-0.1,0-0.1,0.1-0.2
			c0.5-1.2,0.8-1.4,2-0.9c1.2,0.6,2.4,0.5,3.6,0.1c2-0.8,4-1.1,6.1-1.3c1.3-0.1,2.6-0.1,4,0c0.5,0,1.1,0.3,1.6,0.6
			c1.4,1,2.7,2.1,3.9,3.3c1.2,1.2,1.7,2.8,1.4,4.5c-0.4,1.8-1.1,3.5-2.4,4.9c-1.1,1.2-2.2,2.4-3.3,3.6c-1.4,1.5-3.1,2.6-4.7,3.8
			c-1.4,1.1-2.8,2.1-4.2,3.2c-0.1,0.1-0.2,0.3-0.2,0.5c0.2,0,0.4,0.1,0.5,0.1c0.5-0.1,1,0,1.4,0.3c1.4,0.9,3,1.6,4.3,2.8
			c1.2,1.1,2.3,2.3,2.7,4c0.4,1.7,0.2,3.2-0.9,4.6c-1.5,1.7-3.2,3.2-5,4.6c-2.1,1.6-4.1,3.1-6.3,4.6c-3.2,2.1-6.5,4.2-9.7,6.3
			c-0.4,0.2-0.8,0.4-1.2,0.5c-2.4,0.9-4.6,0-5.8-2.1c-0.1-0.2-0.1-0.4-0.2-0.5c-0.7-1.2-0.6-1.7,1-1.7c0.5,0,1.1-0.2,1.6-0.4
			c1.5-0.6,1.8-0.8,0.5-2.1c-1.6-1.6-2.3-3.6-2.3-5.8c0-4.2,1-8.2,2.5-12.2c0.5-1.3,0.9-2.6,1.3-4c0.8-2.7,1.7-5.3,2.8-7.8
			c0.1-0.3,0.2-0.6,0.3-0.9c0-0.1,0-0.2,0-0.3c-0.1,0-0.3,0-0.3,0c-1.3,1.1-2.6,2.2-3.5,3.7c-0.5,0.7-1,1.4-1.6,2.1
			c-1.7,2.1-2.9,4.4-4,6.9C169,87.7,169,87.7,169.3,89.1z M179.4,101.3c0.1,0.8,0.1,1.1,0.1,1.5c0.1,0.6,0.3,0.8,0.8,0.4
			c3.9-2.4,7.7-5,11.4-7.8c1.2-1,2.4-2.1,3.5-3.2c0.6-0.6,1.1-1.4,1-2.4c-0.1-0.5-0.2-0.8-0.8-0.9c-1.3-0.3-2.5-0.2-3.7,0.1
			c-2.4,0.6-4.7,1.4-6.9,2.5c-0.7,0.4-1.4,0.8-2.3,0.9c-0.9,0.2-1.8,0.7-2.1,1.8C179.8,96.7,179.3,99.1,179.4,101.3z M198.4,64.3
			c-0.9,0.2-1.8,0.4-2.7,0.6c-1.6,0.4-3.3,0.9-4.9,1.3c-0.7,0.2-1.2,0.7-1.4,1.4c-0.3,1.2-0.8,2.3-1.2,3.4c-0.4,1.3-0.8,2.5-1.3,3.8
			c-0.6,1.7-1.2,3.4-1.8,5.2c-0.1,0.3-0.4,0.6-0.1,0.8c0.1,0.1,0.4-0.1,0.6-0.2c0.4-0.2,0.9-0.5,1.3-0.8c2.7-1.9,5.5-3.9,8.1-5.9
			c2.5-1.9,4.6-4.2,6.2-6.8c0.3-0.5,0.5-1.1,0.7-1.7c0.1-0.4-0.2-0.8-0.6-0.8C200.5,64.5,199.5,64.4,198.4,64.3z"/>
		<path id="XMLID_14015_" class="st1" d="M200.3,90.9c-0.3-2.3,0.1-4.7,1.3-7c1.2-2.3,2.2-4.6,3.6-6.8c1.1-1.7,2.5-3.2,3.8-4.7
			c0.4-0.5,0.8-1.1,1.3-1.4c0.8-0.5,1.7-0.8,2.7-0.8c2.6-0.1,5.1,0.6,7.3,2.2c1,0.7,1.3,0.6,1.7-0.5c0.1-0.2,0.2-0.5,0.3-0.7
			c0.6-1.6,0.7-1.7,2.4-1.6c2,0.2,3.9,2.3,3.6,4.2c-0.3,1.7-0.9,3.2-1.4,4.8c-0.6,2-1.2,4-1.8,6c-0.4,1.2-0.9,2.4-1.2,3.6
			c-0.3,1.2-0.5,2.4-0.7,3.6c0,0.4,0.3,0.8,0.4,1.3c0.4-0.1,0.9-0.2,1.2-0.5c1.3-1.3,2.5-2.6,3.8-4c0.1-0.1,0.1-0.3,0.3-0.4
			c0.4-0.3,0.8-0.6,1.3-0.9c0.5,0.6,0.2,1.3,0,1.7c-0.8,2-1.6,4-2.6,5.9c-1.2,2.2-3.6,2.7-5.9,1.5c-2.4-1.3-4-3.3-4.4-6
			c-0.1-0.5-0.2-0.9-0.3-1.4c-0.1-0.2-0.3-0.6-0.4-0.5c-0.2,0-0.5,0.2-0.6,0.4c-1.3,2.2-2.5,4.5-4,6.7c-0.8,1.2-1.9,2.3-3.6,2.3
			c-1.3,0-2.6,0.2-3.9-0.6C202.1,95.8,200.7,93.9,200.3,90.9z M205.2,93.6c0,0,0.1,0,0.1,0c0.1,0.3,0.1,0.6,0.2,0.9
			c0,0.1,0.1,0.3,0.2,0.4c0.4,0.7,0.7,0.8,1.4,0.4c0.3-0.2,0.6-0.5,0.9-0.8c0.6-0.8,1.3-1.7,1.8-2.6c1.6-2.7,3-5.4,4.6-8.1
			c1.6-2.7,3.2-5.4,4.8-8.1c0.4-0.6,0.3-1-0.1-1.5c-0.7-0.9-1.8-1.1-2.6-0.5c-1.7,1.1-3,2.6-4.3,4.1c-1.7,2-3,4.3-4.2,6.7
			c-1.1,2.2-2.1,4.4-2.5,6.9C205.2,92.2,205.2,92.9,205.2,93.6z"/>
		<path id="XMLID_14012_" class="st1" d="M225.2,120.9c-2.2-0.2-4.2-0.8-6-2.1c-0.6-0.5-1.2-1-1.7-1.6c-0.2-0.2-0.1-0.5-0.1-0.8
			c0.2,0,0.5-0.1,0.7-0.1c0.6,0,1.1,0.1,1.5,0.5c0.3,0.3,0.7,0.5,1,0.6c1,0.5,1.4,0.5,2.2-0.2c1.1-1,1.7-2.3,2.2-3.7
			c1.4-4.1,2-8.5,2.9-12.7c0.6-2.7,1.2-5.5,1.8-8.2c1-4.2,1.9-8.5,2.9-12.7c0.6-2.9,1.2-5.9,1.8-8.8c0.2-1.2,0.3-2.4,0.5-3.6
			c0.2-1,0.4-1.1,1.4-1c1.7,0.2,3.3,0.7,4.4,2.2c0.5,0.7,0.7,1.5,0.5,2.4c-0.6,3-1.2,6.1-1.6,9.2c-0.8,5.5-2.3,10.8-3.7,16.1
			c-0.7,2.7-1,5.5-1.7,8.2c-1,3.8-2,7.7-3.2,11.4c-0.7,2-1.9,3.8-4.1,4.5C226.3,120.7,225.8,120.8,225.2,120.9z M239.8,55.3
			c1.9,0.1,3.6,0.6,4.6,2.4c0.2,0.3,0.3,0.8,0.2,1.1c-0.7,2.1-1.6,4-3.9,4.8c-1.3,0.4-2.4-0.1-3.5-0.8c-0.3-0.2-0.4-0.9-0.4-1.3
			c0.1-1.8,0.4-3.5,1-5.1C238.2,55.3,239,55.3,239.8,55.3z"/>
		<path id="XMLID_14009_" class="st1" d="M240.3,88.1c-0.3-2.3,0.2-4.7,1.4-7c1.3-2.2,2.3-4.6,3.7-6.7c1.1-1.7,2.6-3.1,3.9-4.7
			c0.4-0.5,0.8-1,1.3-1.4c0.8-0.5,1.7-0.8,2.7-0.8c2.7-0.1,5.1,0.7,7.3,2.4c1,0.7,1.2,0.7,1.7-0.4c0.1-0.2,0.2-0.5,0.3-0.7
			c0.6-1.6,0.8-1.7,2.4-1.5c2,0.2,3.9,2.3,3.5,4.3c-0.3,1.6-1,3.2-1.5,4.8c-0.6,2-1.2,4-1.9,5.9c-0.4,1.2-0.9,2.4-1.3,3.6
			c-0.3,1.2-0.6,2.4-0.8,3.6c-0.1,0.4,0.3,0.9,0.4,1.3c0.4-0.1,0.9-0.2,1.2-0.4c1.3-1.3,2.6-2.6,3.9-3.9c0.1-0.1,0.1-0.3,0.3-0.4
			c0.4-0.3,0.9-0.6,1.3-0.9c0.5,0.6,0.2,1.3,0,1.7c-0.8,2-1.7,4-2.8,5.8c-1.2,2.1-3.6,2.7-5.9,1.4c-2.4-1.3-3.9-3.4-4.3-6.1
			c-0.1-0.5-0.2-0.9-0.3-1.4c-0.1-0.2-0.3-0.6-0.4-0.6c-0.2,0-0.5,0.2-0.6,0.4c-1.4,2.2-2.6,4.5-4.1,6.6c-0.8,1.2-2,2.2-3.7,2.2
			c-1.3,0-2.6,0.2-3.9-0.6C241.9,93.1,240.6,91.2,240.3,88.1z M245.1,91c0,0,0.1,0,0.1,0c0,0.3,0.1,0.6,0.1,0.9
			c0,0.2,0.1,0.3,0.2,0.4c0.4,0.7,0.7,0.8,1.4,0.4c0.3-0.2,0.6-0.5,0.9-0.8c0.6-0.8,1.3-1.7,1.8-2.5c1.6-2.6,3.1-5.3,4.7-8
			c1.6-2.7,3.3-5.4,5-8c0.4-0.6,0.3-1-0.1-1.6c-0.7-0.9-1.8-1.1-2.6-0.5c-1.7,1.1-3.1,2.5-4.4,4c-1.7,2-3.1,4.3-4.4,6.6
			c-1.2,2.2-2.2,4.4-2.7,6.9C245.2,89.5,245.2,90.2,245.1,91z"/>
		<path id="XMLID_14007_" class="st1" d="M288.2,59.8c1.6-0.1,3.1-0.2,4.6-0.2c0.5,0,1,0.1,1.3,0.4c1,0.9,0.5,2.2-0.8,2.4
			c-1,0.2-2,0.2-3,0.3c-1.7,0.2-3.4,0.4-5.1,0.5c-1.1,0.1-1.8,0.5-2.2,1.7c-1.8,4.9-3.9,9.6-5,14.8c-0.4,2-1.2,3.9-1.7,5.9
			c-0.6,2.3-1.2,4.6-1.7,7c-0.6,2.6-1.1,5.3-1.7,7.9c-0.2,1-0.4,2.1-0.5,3.1c0,0.4,0.2,0.7,0.2,1.1c0.3-0.2,0.7-0.3,1-0.6
			c0.6-0.8,1.2-1.6,1.7-2.5c1.6-2.9,3.1-5.7,4.6-8.6c1.3-2.6,2.6-5.2,3.9-7.8c0.1-0.1,0.3-0.2,0.4-0.3c0,0.2,0.1,0.4,0.1,0.5
			c-0.3,1.7-0.5,3.4-1,5c-1.1,3.3-2.3,6.5-3.7,9.7c-0.8,1.9-1.8,3.8-2.8,5.6c-0.9,1.7-2.2,3-4,3.7c-1.2,0.4-2.2,0.4-3.3-0.1
			c-3-1.6-4.4-4.1-3.8-7.6c0.9-5.7,2-11.3,3.5-16.9c1.2-4.1,2.4-8.2,3.7-12.2c0.7-2.4,1.6-4.7,2.4-7.1c0.4-1.3,0.1-1.7-1.3-1.6
			c-3,0.1-5.8,1-8.7,1.2c-0.8,0.1-1.6,0.1-2.4,0.1c-0.4,0-1,0-1-0.6c0-0.5,0.5-0.5,0.9-0.6c2.9-0.6,5.8-1.1,8.7-1.7
			c1.2-0.2,2.4-0.5,3.6-0.6c1.2-0.1,1.9-0.7,2.3-1.7c0.6-1.5,1-3,1.5-4.6c0.4-1.4,0.6-1.7,2.1-1.3c1.1,0.3,2.3,0.4,3.2,1.3
			c0.9,0.9,1.5,1.8,1.2,3.2c-0.2,1.1,0.1,1.4,1.1,1.4c0.7,0,1.4-0.1,2.1-0.1C288.2,59.9,288.2,59.9,288.2,59.8z"/>
		<path id="XMLID_14004_" class="st1" d="M291.4,94.2c-2.4,0.2-4.4-0.7-6.2-1.9c-3.9-2.7-5.1-6.5-4.4-11c0.7-4.2,2.3-8.1,5.1-11.4
			c1.4-1.6,3-2.9,4.6-4.3c0.8-0.7,1.7-0.7,2.7-0.4c0.9,0.2,1.9,0.4,2.8,0.7c0.9,0.3,1.8,0.6,2.6,1.1c1.3,1,1.6,2.4,1.3,4
			c-0.6,3.1-1.8,6-3.1,8.9c-0.6,1.3-1.1,2.6-1.8,3.8c-0.5,0.9-1.2,1.7-2,2.4c-0.6,0.6-1.3,0.7-2.2,0.4c-1.1-0.4-2.1-0.9-3-1.7
			c-0.4-0.4-0.8-0.8-1.3-0.5c-0.3,0.2-0.6,0.8-0.6,1.3c-0.1,0.9-0.2,1.9,0,2.8c0.3,1.8,1.4,3.3,3.6,2.8c2-0.4,3.5-1.3,5-2.6
			c2.4-2.2,4.3-4.7,6.3-7.3c1.3-1.7,2.6-3.3,4-4.9c0.2-0.2,0.5-0.3,0.7-0.4c0.1,0.3,0.4,0.6,0.3,0.9c-0.6,2.2-1.1,4.3-2.4,6.2
			c-1.4,2.1-2.7,4.2-4.2,6.2c-0.9,1.2-1.9,2.3-3,3.3C294.7,93.9,293,94.2,291.4,94.2z M293.8,70.1c-0.3,0.2-0.6,0.4-0.8,0.6
			c-0.3,0.3-0.6,0.7-0.9,1c-2.2,2.3-3.7,5.1-4.9,8c-0.4,1.1-0.1,1.9,0.5,2.8c0.3,0.5,0.7,0.6,1.2,0.2c1-0.8,1.6-1.9,2.1-3.1
			c1.1-2.7,2.1-5.5,3.1-8.3c0.1-0.2,0.2-0.5,0.1-0.7C294.2,70.5,294,70.3,293.8,70.1z"/>
		<path id="XMLID_14002_" class="st1" d="M320.6,102.4c-0.1-2,0.3-4,0.7-5.9c0.7-3.2,1.3-6.4,2.1-9.5c1.3-4.9,2.6-9.9,4.4-14.6
			c1.7-4.6,3.4-9.2,5.1-13.8c0.6-1.5,1.2-3,1.8-4.4c0.3-0.7,1-1.2,1.7-0.9c1.6,0.5,3.1,1.1,4.2,2.4c0.5,0.6,0.6,1.1,0.4,1.8
			c-0.5,1.4-1.1,2.9-1.6,4.3c-0.8,2-1.5,3.9-2.3,5.9c-1.1,3-2.3,6-3.3,9c-0.8,2.4-1.5,4.8-2.2,7.2c-1,3.4-1.8,6.9-2.8,10.3
			c-1,3.5-1.6,7.1-1.9,10.8c0,0.5,0.1,1.4,0.5,1.6c0.6,0.4,1.1-0.4,1.4-0.8c1.4-2,2.7-4.1,4-6.2c1.7-2.8,3.2-5.7,4.8-8.6
			c0.1-0.2,0.3-0.3,0.5-0.5c0.2,0.2,0.4,0.4,0.4,0.6c0.1,0.3,0.1,0.7,0,1c-0.3,1.5-0.5,3-1,4.4c-0.5,1.5-1.1,2.9-1.8,4.3
			c-1.3,2.4-2.6,4.8-4.1,7c-0.7,1.1-1.8,2.1-3,2.7c-1.6,0.8-3.3,0.3-4.8-0.7c-2.3-1.4-3.4-3.5-3.4-6.2
			C320.6,103.1,320.6,102.7,320.6,102.4z"/>
		<path id="XMLID_13999_" class="st1" d="M335.2,84.9c-0.2-2.3,0.4-4.7,1.8-6.9c1.4-2.2,2.5-4.5,4-6.5c1.2-1.6,2.7-3,4.2-4.5
			c0.4-0.5,0.9-1,1.4-1.3c0.8-0.5,1.7-0.7,2.7-0.6c2.6,0.1,5,1,7.1,2.7c1,0.8,1.2,0.7,1.7-0.3c0.1-0.2,0.2-0.5,0.3-0.7
			c0.7-1.6,0.9-1.7,2.5-1.4c2,0.3,3.7,2.5,3.3,4.5c-0.4,1.6-1.1,3.1-1.7,4.7c-0.7,1.9-1.4,3.9-2.2,5.8c-0.5,1.2-1,2.3-1.5,3.5
			c-0.4,1.1-0.7,2.3-0.9,3.5c-0.1,0.4,0.2,0.9,0.4,1.3c0.4-0.1,0.9-0.1,1.2-0.4c1.4-1.2,2.7-2.5,4.1-3.7c0.1-0.1,0.2-0.3,0.3-0.4
			c0.4-0.3,0.9-0.6,1.3-0.8c0.5,0.6,0.1,1.3-0.1,1.7c-0.9,1.9-1.9,3.9-3,5.7c-1.3,2.1-3.8,2.5-6,1.1c-2.3-1.5-3.7-3.6-4-6.3
			c0-0.5-0.1-0.9-0.2-1.4c-0.1-0.2-0.3-0.6-0.4-0.6c-0.2,0-0.5,0.2-0.6,0.3c-1.5,2.1-2.9,4.3-4.4,6.4c-0.9,1.2-2.1,2.1-3.8,2
			c-1.3-0.1-2.6,0.1-3.9-0.8C336.7,89.9,335.4,87.9,335.2,84.9z M339.9,88c0,0,0.1,0,0.1,0c0,0.3,0,0.6,0.1,0.9
			c0,0.2,0.1,0.3,0.2,0.4c0.4,0.7,0.7,0.9,1.3,0.5c0.3-0.2,0.7-0.5,0.9-0.8c0.7-0.8,1.4-1.6,2-2.4c1.7-2.6,3.4-5.2,5.1-7.7
			c1.8-2.6,3.5-5.2,5.3-7.8c0.4-0.6,0.3-1,0-1.6c-0.6-0.9-1.7-1.2-2.6-0.7c-1.7,1-3.2,2.4-4.5,3.8c-1.8,1.9-3.3,4.1-4.7,6.4
			c-1.3,2.1-2.4,4.3-3,6.7C340,86.5,340,87.3,339.9,88z"/>
		<path id="XMLID_13996_" class="st1" d="M382.8,85.1c-0.1-2.3,0.5-4.7,1.9-6.9c1.4-2.1,2.6-4.4,4.2-6.4c1.2-1.6,2.8-2.9,4.3-4.3
			c0.5-0.5,0.9-1,1.4-1.3c0.8-0.5,1.7-0.6,2.7-0.6c2.6,0.1,5,1.1,7.1,2.9c0.9,0.8,1.2,0.8,1.7-0.3c0.1-0.2,0.2-0.5,0.3-0.7
			c0.7-1.5,0.9-1.6,2.5-1.4c2,0.3,3.7,2.6,3.2,4.6c-0.4,1.6-1.2,3.1-1.8,4.7c-0.8,1.9-1.5,3.9-2.3,5.8c-0.5,1.2-1.1,2.3-1.5,3.5
			c-0.4,1.1-0.8,2.3-1,3.5c-0.1,0.4,0.2,0.9,0.3,1.3c0.4-0.1,0.9-0.1,1.2-0.3c1.4-1.2,2.8-2.4,4.2-3.6c0.1-0.1,0.2-0.3,0.3-0.3
			c0.4-0.3,0.9-0.5,1.4-0.8c0.5,0.7,0.1,1.3-0.2,1.7c-1,1.9-2,3.8-3.2,5.6c-1.4,2-3.8,2.4-6,1c-2.3-1.5-3.7-3.6-3.8-6.4
			c0-0.5-0.1-0.9-0.2-1.4c-0.1-0.2-0.2-0.6-0.4-0.6c-0.2,0-0.5,0.2-0.6,0.3c-1.5,2.1-3,4.3-4.6,6.3c-0.9,1.2-2.1,2.1-3.8,1.9
			c-1.3-0.1-2.6,0-3.8-0.9C384.1,90.1,382.9,88.1,382.8,85.1z M387.4,88.3c0,0,0.1,0,0.1,0c0,0.3,0,0.6,0.1,0.9
			c0,0.2,0.1,0.3,0.2,0.4c0.3,0.7,0.7,0.9,1.3,0.5c0.3-0.2,0.7-0.4,0.9-0.7c0.7-0.8,1.4-1.5,2-2.4c1.8-2.5,3.5-5.1,5.3-7.6
			c1.8-2.6,3.7-5.1,5.5-7.6c0.4-0.5,0.4-1,0-1.6c-0.6-0.9-1.7-1.2-2.6-0.7c-1.8,1-3.2,2.3-4.6,3.7c-1.9,1.9-3.4,4-4.8,6.3
			c-1.3,2.1-2.5,4.2-3.2,6.7C387.6,86.8,387.5,87.6,387.4,88.3z"/>
		<path id="XMLID_13993_" class="st1" d="M412,106.8c0,0.5,0.1,1.1,0.1,1.7c0,0.7-0.3,1-1,1c-0.7,0-1.5,0-2.2-0.5
			c-2.3-1.5-3.7-3.5-3.6-6.2c0.1-2.3,0.6-4.5,1.2-6.8c0.8-3.5,2.3-6.7,3.3-10.1c0.4-1.6,1.2-3.2,1.7-4.8c0.9-3,2.4-5.7,3.5-8.6
			c1-2.5,2-4.9,2.9-7.4c0.4-1.2,0.6-1.3,2-1.1c1.6,0.3,2.9,1.3,4,2.6c0.3,0.3,0.4,0.9,0.4,1.3c-0.1,1-0.3,1.9-0.5,2.9
			c-0.2,0.9-0.5,1.8-0.8,2.7c0,0.1,0.1,0.3,0.1,0.5c0.2-0.1,0.4-0.1,0.5-0.3c0.6-0.7,1.1-1.5,1.7-2.3c1.1-1.4,2.3-2.8,3.5-4.2
			c0.6-0.7,1.3-1.3,2-1.8c1.1-0.6,2.4-0.5,3.6,0c2.7,1,3.3,2.2,3.5,4.4c0.2,2-0.1,3.9-0.5,5.7c-0.9,3.5-2.3,6.8-3.9,10
			c-1.1,2.2-2.4,4.4-3.6,6.6c-0.1,0.2-0.2,0.3-0.3,0.5c-0.8,1.1-4.3,2.1-5.7,1.7c-1.7-0.5-3.1-1.4-4.3-2.7c-1.5-1.7-3.9-1.2-4.4,0.8
			c-1,3.7-2.1,7.4-3.1,11.2c-0.3,1-0.2,2.2-0.3,3.2C412,106.8,412,106.8,412,106.8z M431.1,72.5c-0.1-0.3-0.2-0.5-0.3-0.7
			c-0.2,0.1-0.5,0.1-0.7,0.3c-0.2,0.2-0.4,0.4-0.6,0.6c-1.5,2.1-2.9,4.3-4.3,6.4c-0.8,1.2-1.5,2.3-2.2,3.5c-0.9,1.5-1.8,2.9-2.6,4.5
			c-0.7,1.5-0.5,1.9,0.8,2.9c0.6,0.5,1.1,0.5,1.6,0.2c1.2-0.7,2-1.8,2.5-3c1.7-4.1,3.4-8.3,5.1-12.5C430.7,74,430.9,73.2,431.1,72.5
			z"/>
		<path id="XMLID_13990_" class="st1" d="M436.1,107.7c0,0.6,0.1,1.1,0.1,1.7c0,0.7-0.3,1-1,1c-0.7,0-1.5-0.1-2.2-0.5
			c-2.3-1.6-3.7-3.5-3.5-6.3c0.2-2.3,0.7-4.5,1.3-6.8c0.9-3.5,2.4-6.6,3.4-10.1c0.5-1.6,1.2-3.2,1.8-4.8c1-3,2.5-5.7,3.7-8.5
			c1-2.5,2.1-4.9,3-7.4c0.4-1.2,0.6-1.3,2-1c1.6,0.3,2.9,1.3,4,2.6c0.3,0.3,0.4,0.9,0.4,1.3c-0.1,1-0.3,1.9-0.6,2.9
			c-0.2,0.9-0.6,1.8-0.8,2.6c0,0.1,0.1,0.3,0.1,0.5c0.2-0.1,0.4-0.1,0.5-0.2c0.6-0.7,1.2-1.5,1.8-2.3c1.2-1.4,2.3-2.8,3.5-4.1
			c0.6-0.7,1.3-1.3,2.1-1.8c1.1-0.6,2.4-0.4,3.6,0c2.7,1,3.2,2.2,3.4,4.5c0.2,2-0.1,3.9-0.6,5.7c-1,3.5-2.4,6.8-4,10
			c-1.2,2.2-2.4,4.4-3.7,6.5c-0.1,0.2-0.2,0.4-0.3,0.5c-0.8,1.1-4.3,2-5.7,1.6c-1.7-0.5-3.1-1.4-4.2-2.8c-1.4-1.7-3.9-1.2-4.5,0.8
			c-1.1,3.7-2.2,7.4-3.2,11.1c-0.3,1-0.2,2.2-0.3,3.2C436,107.7,436.1,107.7,436.1,107.7z M455.7,73.7c-0.1-0.3-0.2-0.5-0.3-0.7
			c-0.2,0.1-0.5,0.1-0.7,0.3c-0.2,0.2-0.4,0.4-0.6,0.6c-1.5,2.1-3,4.2-4.4,6.4c-0.8,1.1-1.5,2.3-2.3,3.5c-0.9,1.5-1.8,2.9-2.6,4.5
			c-0.7,1.5-0.5,1.9,0.8,3c0.6,0.5,1,0.5,1.6,0.2c1.2-0.7,2-1.7,2.6-3c1.8-4.1,3.5-8.2,5.2-12.4C455.2,75.2,455.4,74.4,455.7,73.7z"
			/>
	</g>
	<path id="XMLID_13988_" class="st2" d="M10.1,35.9c-4.9,7.3-7.5,11.2,5,37.5s24,50.3,28.1,67.5c3,12.8,12.9,51.6,20.6,54.3
		c15.1,5.3,50-13.1,62.5-14.4s33.3-9.8,35.1-21.1c1.9-11.2-13.7-30.8-15-40.8s-30.8-86.8-30.1-96.8c0.6-10-13.1-15.6-20-13.1
		c-3.3,1.2-30.4,9.8-33.1,10.6c-0.2,0.1-0.3,0.1-0.4,0.1C59.2,20.5,14.3,29.6,10.1,35.9z"/>
	<g id="XMLID_13979_">
		<path id="XMLID_13987_" class="st2" d="M91.8,17.6L32.4,37.6c-8.2,2.8-12.6,11.7-9.8,19.9l39.9,118c2.8,8.2,11.7,12.6,19.9,9.8
			l59.4-20.1c8.2-2.8,12.6-11.7,9.8-19.9l-39.9-118C108.9,19.2,100,14.8,91.8,17.6"/>
		<g id="XMLID_13980_">
			<defs>
				
					<rect id="XMLID_13981_" x="40.1" y="23.5" transform="matrix(0.9474 -0.32 0.32 0.9474 -27.8866 33.2058)" width="94" height="155.9"/>
			</defs>
			<clipPath id="XMLID_2_">
				<use xlink:href="#XMLID_13981_"  style="overflow:visible;"/>
			</clipPath>
			<path id="XMLID_13982_" class="st3" d="M91.8,17.6L32.4,37.6c-8.2,2.8-12.6,11.7-9.8,19.9l39.9,118c2.8,8.2,11.7,12.6,19.9,9.8
				l59.4-20.1c8.2-2.8,12.6-11.7,9.8-19.9l-39.9-118C108.9,19.2,100,14.8,91.8,17.6 M58.1,45.1l17.8-6c1-0.3,2.1,0.2,2.5,1.2
				c0.3,1-0.2,2.1-1.2,2.5l-17.8,6c-1,0.3-2.1-0.2-2.5-1.2C56.5,46.5,57.1,45.4,58.1,45.1 M110.2,169.8c-5.1,1.7-10.7-1-12.4-6.1
				s1-10.7,6.1-12.4c5.1-1.7,10.7,1,12.4,6.1C118,162.5,115.3,168,110.2,169.8 M135.3,132.7c0.3,1-0.2,2.1-1.2,2.5l-63.8,21.6
				c-1,0.3-2.1-0.2-2.5-1.2L38.9,70.2c-0.3-1,0.2-2.1,1.2-2.5L104,46.1c1-0.3,2.1,0.2,2.5,1.2L135.3,132.7z"/>
		</g>
	</g>
</g>
</svg>
